<svg width="255" height="254" viewBox="0 0 255 254" fill="none" xmlns="http://www.w3.org/2000/svg">
<path d="M177.333 89.7954C184.654 89.0212 186.335 86.5594 186.742 80C187.188 86.9158 188.932 89.3532 196 89.7954C188.433 90.4241 186.953 93.0413 186.742 99.6667C186.463 92.2694 184.501 90.008 177.333 89.7954Z" fill="#DFCAC1"/>
<circle cx="127.333" cy="127" r="126" stroke="#AB9D8C" stroke-width="2"/>
<path d="M145.435 1.33334C90.7267 95.114 169.286 182.665 231.333 199.333" stroke="#AB9D8C" stroke-width="2"/>
<path d="M193.702 105.83V140.81C193.702 148.51 194.142 153.24 195.022 155C195.976 156.76 198.616 157.64 202.942 157.64L203.162 158.96H176.322L176.542 157.64C180.942 157.64 183.619 156.76 184.572 155C185.526 153.167 186.002 148.363 186.002 140.59V132.89C186.002 124.383 185.746 118.773 185.232 116.06C184.792 113.273 184.132 111.477 183.252 110.67C181.492 109.057 178.779 108.25 175.112 108.25L174.892 107.04C181.272 106.233 187.542 105.83 193.702 105.83Z" fill="#DFCAC1"/>
<path d="M156.902 111.11C156.902 109.203 155.032 108.25 151.292 108.25L151.072 106.93H171.312L171.092 108.25C169.186 108.25 167.022 108.653 164.602 109.46C163.136 109.973 160.239 113.42 155.912 119.8C154.152 122.367 152.649 124.493 151.402 126.18L147.552 131.46L155 143C159.298 148.77 166 156.5 168 158.5C166.225 158.995 167.5 158 168 158.5L168.5 159L145.902 158.96L146.122 157.64C148.249 157.64 149.716 157.493 150.522 157.2C151.329 156.907 151.732 156.137 151.732 154.89C151.732 153.57 149.862 149.867 146.122 143.78L142.162 137.4L139.522 141.14C134.536 147.96 132.042 152.507 132.042 154.78C132.042 156.687 133.766 157.64 137.212 157.64L137.432 158.96H117.082L117.302 157.64C120.749 157.64 123.242 157.053 124.782 155.88C125.516 155.22 126.102 154.707 126.542 154.34C127.056 153.973 127.789 153.167 128.742 151.92C129.769 150.6 130.539 149.573 131.052 148.84C131.566 148.107 132.519 146.713 133.912 144.66C135.379 142.607 136.589 140.957 137.542 139.71L140.842 135.09L134.022 123.76C130.062 117.307 127.056 113.127 125.002 111.22C123.022 109.24 120.676 108.25 117.962 108.25L117.742 106.93L135.21 106.31L136.5 110C131.11 112.2 136.017 108.8 135.21 109.167C134.404 109.46 136.5 109.193 136.5 110C137.392 110.667 138.129 115.437 142.602 123.21L146.232 129.26L149.422 124.75C154.409 117.93 156.902 113.383 156.902 111.11Z" fill="#DFCAC1"/>
<path d="M95.4253 92.63C94.1786 91.3833 93.5553 89.9167 93.5553 88.23C93.5553 86.5433 94.1786 85.0767 95.4253 83.83C96.672 82.5833 98.1386 81.96 99.8253 81.96C101.512 81.96 102.979 82.5833 104.225 83.83C105.472 85.0767 106.095 86.5433 106.095 88.23C106.095 89.9167 105.472 91.3833 104.225 92.63C102.979 93.8767 101.512 94.5 99.8253 94.5C98.1386 94.5 96.672 93.8767 95.4253 92.63ZM104.005 105.83V140.81C104.005 148.51 104.445 153.24 105.325 155C106.279 156.76 108.919 157.64 113.245 157.64L113.465 158.96H86.6253L86.8453 157.64C91.2453 157.64 93.922 156.76 94.8753 155C95.8286 153.167 96.3053 148.363 96.3053 140.59V132.89C96.3053 124.383 96.0486 118.773 95.5353 116.06C95.0953 113.273 94.4353 111.477 93.5553 110.67C91.7953 109.057 89.082 108.25 85.4153 108.25L85.1953 107.04C91.5753 106.233 97.8453 105.83 104.005 105.83Z" fill="#DFCAC1"/>
<path d="M62.38 78V139.82C62.38 147.96 62.8567 152.983 63.81 154.89C64.7633 156.723 67.4033 157.64 71.73 157.64L71.95 158.96H45L45.22 157.64C49.62 157.64 52.2967 156.723 53.25 154.89C54.2033 153.057 54.68 148.033 54.68 139.82V97.8C54.68 89.66 54.24 84.7467 53.36 83.06C53.0667 82.5467 52.5167 82.0333 51.71 81.52C50.9033 81.0067 50.0233 80.7133 49.07 80.64C48.19 80.5667 46.9067 80.53 45.22 80.53L45 79.32C50.5 78.44 56.2933 78 62.38 78Z" fill="#DFCAC1"/>
</svg>
