<svg xmlns="http://www.w3.org/2000/svg" xmlns:xlink="http://www.w3.org/1999/xlink" width="96" zoomAndPan="magnify" viewBox="0 0 72 87.749997" height="117" preserveAspectRatio="xMidYMid meet" version="1.0"><defs><clipPath id="c459929943"><path d="M 0.101562 0 L 71.898438 0 L 71.898438 87 L 0.101562 87 Z M 0.101562 0 " clip-rule="nonzero"/></clipPath><clipPath id="52f458c1d3"><path d="M 0.101562 0 L 71.898438 0 L 71.898438 87 L 0.101562 87 Z M 0.101562 0 " clip-rule="nonzero"/></clipPath></defs><g clip-path="url(#c459929943)"><path fill="#ede6e2" d="M 70.445312 48.230469 C 70.277344 52.304688 69.839844 56.152344 68.984375 59.953125 C 68.480469 62.171875 67.558594 64.230469 66.636719 66.292969 C 66.160156 67.359375 65.679688 68.421875 65.40625 69.570312 C 65.160156 70.617188 65.234375 71.621094 65.695312 72.601562 C 66.105469 73.46875 66.550781 74.3125 67.027344 75.140625 C 68.539062 77.769531 69.917969 80.460938 71.097656 83.253906 C 71.273438 83.675781 71.417969 84.101562 71.480469 84.550781 C 71.6875 86.109375 70.675781 87.136719 69.109375 86.945312 C 68.027344 86.8125 67.179688 86.222656 66.421875 85.496094 C 65.667969 84.78125 65.035156 83.957031 64.421875 83.117188 C 63.136719 81.359375 61.9375 79.535156 60.53125 77.863281 C 60.152344 77.417969 59.765625 76.976562 59.347656 76.570312 C 58.199219 75.457031 56.847656 74.722656 55.296875 74.289062 C 51.382812 73.191406 47.441406 72.222656 43.46875 71.363281 C 39.867188 70.582031 36.625 68.929688 33.5 67.035156 C 28.195312 63.820312 23.640625 59.746094 19.667969 54.988281 C 14.738281 49.082031 10.128906 42.945312 6.15625 36.34375 C 5.527344 35.296875 4.878906 34.257812 4.289062 33.1875 C 4.042969 32.742188 3.753906 32.535156 3.25 32.503906 C 2.09375 32.4375 1.179688 31.90625 0.484375 30.976562 C 0.246094 30.664062 0.148438 30.347656 0.160156 29.949219 C 0.257812 26.875 1.9375 24.773438 4.390625 23.226562 C 6.597656 21.839844 8.980469 20.78125 11.46875 19.976562 C 13.566406 19.300781 15.714844 18.792969 17.804688 18.089844 C 20.222656 17.277344 22.597656 16.34375 24.859375 15.167969 C 32.425781 11.230469 40.121094 7.570312 47.9375 4.164062 C 50.371094 3.105469 52.769531 1.964844 55.195312 0.886719 C 57.207031 -0.0078125 59.304688 0.519531 60.921875 1.878906 C 61.816406 2.628906 61.996094 4.042969 61.246094 5.070312 C 60.738281 5.769531 60.820312 6.289062 61.125 7.003906 C 63.851562 13.4375 65.785156 20.109375 67.078125 26.972656 C 67.625 29.871094 68.417969 32.71875 69 35.605469 C 69.855469 39.855469 70.652344 44.675781 70.445312 48.230469 Z M 64.3125 81.203125 C 64.34375 81.242188 64.375 81.285156 64.402344 81.328125 C 65.128906 82.507812 65.960938 83.605469 66.910156 84.609375 C 67.429688 85.15625 68.023438 85.605469 68.734375 85.859375 C 69.214844 86.03125 69.746094 86.125 70.175781 85.761719 C 70.617188 85.386719 70.542969 84.859375 70.429688 84.355469 C 70.40625 84.25 70.382812 84.148438 70.347656 84.046875 C 69.652344 82.269531 68.835938 80.550781 67.875 78.898438 C 67.851562 78.832031 67.828125 78.765625 67.804688 78.699219 C 67.644531 78.324219 67.46875 77.953125 67.207031 77.632812 C 67.21875 77.542969 67.1875 77.46875 67.105469 77.421875 C 66.949219 77.03125 66.746094 76.667969 66.511719 76.324219 C 66.503906 76.183594 66.453125 76.066406 66.355469 75.96875 C 65.785156 74.980469 65.238281 73.976562 64.765625 72.933594 C 64.25 71.800781 64.152344 70.636719 64.429688 69.429688 C 64.671875 68.359375 65.09375 67.355469 65.53125 66.359375 C 66.371094 64.4375 67.289062 62.542969 67.832031 60.503906 C 68.328125 58.621094 68.648438 56.710938 68.894531 54.78125 C 69.359375 51.136719 69.707031 47.492188 69.28125 43.8125 C 68.847656 40.035156 68.253906 36.28125 67.304688 32.597656 C 66.765625 30.511719 66.363281 28.398438 65.945312 26.285156 C 65.488281 23.992188 64.960938 21.714844 64.296875 19.46875 C 64.285156 19.023438 64.160156 18.605469 63.992188 18.195312 C 63.015625 14.28125 61.472656 10.570312 59.964844 6.75 C 59.292969 7.320312 58.710938 7.78125 58.078125 8.167969 C 56.308594 9.246094 54.523438 10.308594 52.65625 11.210938 C 47.9375 13.480469 43.222656 15.753906 38.558594 18.132812 C 33.660156 20.636719 28.851562 23.304688 23.820312 25.546875 C 19.789062 27.339844 15.753906 29.121094 11.621094 30.660156 C 9.753906 31.359375 7.839844 31.914062 5.898438 32.382812 C 5.632812 32.445312 5.3125 32.359375 5.121094 32.578125 C 5.101562 32.804688 5.226562 32.921875 5.304688 33.058594 C 9.761719 40.675781 14.894531 47.8125 20.582031 54.558594 C 24.664062 59.402344 29.367188 63.515625 34.851562 66.699219 C 37.617188 68.308594 40.484375 69.714844 43.636719 70.398438 C 47.585938 71.25 51.503906 72.214844 55.398438 73.300781 C 57.355469 73.84375 59.015625 74.796875 60.414062 76.253906 C 61.128906 77 61.757812 77.824219 62.40625 78.632812 C 62.414062 78.710938 62.460938 78.75 62.539062 78.757812 C 62.785156 79.15625 63.0625 79.53125 63.382812 79.875 C 63.378906 79.957031 63.410156 80.011719 63.492188 80.035156 C 63.71875 80.457031 63.996094 80.84375 64.3125 81.203125 Z M 27.292969 19.710938 C 27.203125 19.699219 27.136719 19.730469 27.09375 19.808594 C 27.042969 19.789062 27.007812 19.800781 26.980469 19.847656 C 26.246094 20.128906 25.507812 20.402344 24.78125 20.699219 C 21.605469 21.976562 18.496094 23.40625 15.289062 24.613281 C 14.082031 25.070312 12.890625 25.578125 11.75 26.195312 C 11.601562 26.242188 11.445312 26.28125 11.300781 26.335938 C 9.507812 27.003906 7.769531 27.808594 6.003906 28.546875 C 4.449219 29.195312 2.917969 29.941406 1.132812 29.925781 C 1.289062 30.835938 1.867188 31.257812 2.617188 31.472656 C 3.316406 31.667969 4.035156 31.667969 4.757812 31.574219 C 6.617188 31.339844 8.375 30.722656 10.144531 30.15625 C 13.3125 29.144531 16.320312 27.726562 19.390625 26.457031 C 25.339844 23.996094 31.035156 21.003906 36.726562 18.015625 C 41.316406 15.605469 45.988281 13.371094 50.652344 11.117188 C 52.957031 10.003906 55.195312 8.792969 57.378906 7.472656 C 57.832031 7.199219 58.269531 6.886719 58.6875 6.558594 C 59.425781 5.980469 60.066406 5.300781 60.519531 4.476562 C 60.988281 3.621094 60.738281 2.730469 59.96875 2.351562 C 59.820312 2.28125 59.703125 2.230469 59.554688 2.398438 C 58.917969 3.117188 58.160156 3.699219 57.378906 4.253906 C 53.882812 6.742188 50.183594 8.871094 46.234375 10.570312 C 45.210938 11.011719 44.191406 11.464844 43.179688 11.941406 C 37.847656 14.453125 32.722656 17.390625 27.292969 19.710938 Z M 2.011719 28.996094 C 2.976562 28.914062 3.855469 28.601562 4.695312 28.191406 C 6.988281 27.078125 9.34375 26.097656 11.6875 25.089844 C 15.765625 23.339844 19.890625 21.703125 23.980469 19.988281 C 27.730469 18.414062 31.492188 16.878906 35.085938 14.960938 C 38.394531 13.195312 41.695312 11.417969 45.160156 9.976562 C 49.480469 8.183594 53.476562 5.824219 57.320312 3.191406 C 57.691406 2.9375 58.003906 2.601562 58.359375 2.324219 C 58.816406 1.972656 58.550781 1.613281 58.183594 1.5 C 57.632812 1.332031 57.074219 1.371094 56.53125 1.542969 C 56.050781 1.699219 55.582031 1.886719 55.113281 2.070312 C 52.269531 3.199219 49.539062 4.574219 46.738281 5.796875 C 39.960938 8.75 33.289062 11.917969 26.738281 15.34375 C 23.386719 17.097656 19.910156 18.550781 16.277344 19.621094 C 14.773438 20.066406 13.257812 20.472656 11.765625 20.945312 C 9.039062 21.8125 6.476562 23.023438 4.101562 24.628906 C 2.917969 25.429688 2.121094 26.535156 1.550781 27.824219 C 1.480469 27.992188 1.425781 28.179688 1.417969 28.359375 C 1.394531 28.796875 1.601562 28.992188 2.011719 28.996094 Z M 2.011719 28.996094 C 1.601562 28.992188 1.394531 28.796875 1.417969 28.359375 C 1.425781 28.179688 1.480469 27.992188 1.550781 27.824219 C 2.121094 26.535156 2.917969 25.429688 4.101562 24.628906 C 6.476562 23.023438 9.039062 21.8125 11.765625 20.945312 C 13.257812 20.472656 14.773438 20.066406 16.277344 19.621094 C 19.910156 18.550781 23.386719 17.097656 26.738281 15.34375 C 33.289062 11.917969 39.960938 8.75 46.738281 5.796875 C 49.539062 4.574219 52.269531 3.199219 55.113281 2.070312 C 55.582031 1.886719 56.050781 1.699219 56.53125 1.542969 C 57.074219 1.371094 57.632812 1.332031 58.183594 1.5 C 58.550781 1.613281 58.816406 1.972656 58.359375 2.324219 C 58.003906 2.601562 57.691406 2.9375 57.320312 3.191406 C 53.476562 5.824219 49.480469 8.183594 45.160156 9.976562 C 41.695312 11.417969 38.394531 13.195312 35.085938 14.960938 C 31.492188 16.878906 27.730469 18.414062 23.980469 19.988281 C 19.890625 21.703125 15.765625 23.339844 11.6875 25.089844 C 9.34375 26.097656 6.988281 27.078125 4.695312 28.191406 C 3.855469 28.601562 2.976562 28.914062 2.011719 28.996094 Z M 62.40625 78.632812 C 61.757812 77.824219 61.128906 77 60.414062 76.253906 C 59.015625 74.796875 57.355469 73.84375 55.398438 73.300781 C 51.503906 72.214844 47.585938 71.25 43.636719 70.398438 C 40.484375 69.714844 37.617188 68.308594 34.851562 66.699219 C 29.367188 63.515625 24.664062 59.402344 20.582031 54.558594 C 14.894531 47.8125 9.761719 40.675781 5.304688 33.058594 C 5.226562 32.921875 5.101562 32.804688 5.121094 32.578125 C 5.3125 32.359375 5.632812 32.445312 5.898438 32.382812 C 7.839844 31.914062 9.753906 31.359375 11.621094 30.660156 C 15.753906 29.121094 19.789062 27.339844 23.820312 25.546875 C 28.851562 23.304688 33.660156 20.636719 38.558594 18.132812 C 43.222656 15.753906 47.9375 13.480469 52.65625 11.210938 C 54.523438 10.308594 56.308594 9.246094 58.078125 8.167969 C 58.710938 7.78125 59.292969 7.320312 59.964844 6.75 C 61.472656 10.570312 63.015625 14.28125 63.992188 18.195312 C 63.800781 18.214844 63.640625 18.277344 63.519531 18.445312 C 63.113281 19.019531 62.515625 19.390625 61.972656 19.808594 C 60.082031 21.265625 58.070312 22.546875 56.050781 23.816406 C 54.546875 24.761719 53.046875 25.714844 51.527344 26.632812 C 49.371094 27.933594 47.199219 29.207031 44.984375 30.410156 C 42.835938 31.582031 40.632812 32.625 38.375 33.558594 C 36.394531 34.375 34.394531 35.164062 32.367188 35.871094 C 30.820312 36.414062 29.300781 37.046875 27.699219 37.453125 C 27.136719 37.597656 26.597656 37.828125 26.050781 38.027344 C 25.867188 38.09375 25.71875 38.226562 25.734375 38.441406 C 25.753906 38.667969 25.960938 38.726562 26.132812 38.777344 C 26.285156 38.824219 26.449219 38.816406 26.605469 38.832031 C 27.3125 38.898438 27.976562 38.695312 28.625 38.46875 C 31.027344 37.628906 33.441406 36.8125 35.816406 35.902344 C 38.09375 35.03125 40.355469 34.113281 42.550781 33.042969 C 44.671875 32.003906 46.75 30.882812 48.785156 29.683594 C 51.664062 27.988281 54.527344 26.269531 57.332031 24.457031 C 59.113281 23.304688 60.894531 22.160156 62.546875 20.824219 C 63.121094 20.363281 63.574219 19.734375 64.296875 19.46875 C 64.960938 21.714844 65.488281 23.992188 65.945312 26.285156 C 66.363281 28.398438 66.765625 30.511719 67.304688 32.597656 C 68.253906 36.28125 68.847656 40.035156 69.28125 43.8125 C 69.707031 47.492188 69.359375 51.136719 68.894531 54.78125 C 68.648438 56.710938 68.328125 58.621094 67.832031 60.503906 C 67.289062 62.542969 66.371094 64.4375 65.53125 66.359375 C 65.09375 67.355469 64.671875 68.359375 64.429688 69.429688 C 64.152344 70.636719 64.25 71.800781 64.765625 72.933594 C 65.238281 73.976562 65.785156 74.980469 66.355469 75.96875 C 65.175781 76.800781 64.066406 77.734375 62.710938 78.289062 C 62.5625 78.351562 62.460938 78.476562 62.40625 78.632812 Z M 45.261719 56.726562 C 45.488281 56.707031 45.675781 56.707031 45.859375 56.671875 C 48.328125 56.183594 50.757812 55.558594 53.113281 54.636719 C 56.433594 53.335938 59.613281 51.753906 62.617188 49.832031 C 64.339844 48.730469 65.925781 47.445312 67.488281 46.132812 C 67.6875 45.960938 67.875 45.765625 68.042969 45.558594 C 68.226562 45.332031 68.226562 45.054688 68.097656 44.808594 C 67.941406 44.519531 67.648438 44.546875 67.386719 44.605469 C 67.128906 44.660156 66.90625 44.8125 66.710938 45.003906 C 66.335938 45.378906 65.921875 45.710938 65.523438 46.058594 C 63.265625 48.023438 60.726562 49.554688 58.109375 50.964844 C 56.375 51.898438 54.574219 52.6875 52.742188 53.394531 C 50.914062 54.097656 49.0625 54.742188 47.136719 55.144531 C 46.359375 55.304688 45.601562 55.546875 44.804688 55.605469 C 44.511719 55.628906 44.300781 55.816406 44.261719 56.109375 C 44.214844 56.453125 44.511719 56.546875 44.753906 56.640625 C 44.921875 56.707031 45.117188 56.703125 45.261719 56.726562 Z M 66.425781 80.105469 C 65.769531 80.546875 65.113281 80.980469 64.402344 81.328125 C 65.128906 82.507812 65.960938 83.605469 66.910156 84.609375 C 67.429688 85.15625 68.023438 85.605469 68.734375 85.859375 C 69.214844 86.03125 69.746094 86.125 70.175781 85.761719 C 70.617188 85.386719 70.542969 84.859375 70.429688 84.355469 C 70.40625 84.25 70.382812 84.148438 70.347656 84.046875 C 69.652344 82.269531 68.835938 80.550781 67.875 78.898438 C 67.339844 79.238281 66.953125 79.75 66.425781 80.105469 Z M 65.171875 77.292969 C 64.347656 77.878906 63.453125 78.332031 62.539062 78.757812 C 62.785156 79.15625 63.0625 79.53125 63.382812 79.875 C 63.738281 79.503906 64.25 79.394531 64.671875 79.136719 C 65.300781 78.75 65.945312 78.386719 66.449219 77.832031 C 66.628906 77.636719 66.824219 77.457031 67.105469 77.421875 C 66.949219 77.03125 66.746094 76.667969 66.511719 76.324219 C 66.019531 76.582031 65.617188 76.96875 65.171875 77.292969 Z M 65.257812 79.199219 C 64.683594 79.511719 64.136719 79.875 63.492188 80.035156 C 63.71875 80.457031 63.996094 80.84375 64.3125 81.203125 C 64.386719 80.945312 64.613281 80.847656 64.816406 80.726562 C 65.691406 80.183594 66.574219 79.652344 67.300781 78.90625 C 67.4375 78.765625 67.621094 78.726562 67.804688 78.699219 C 67.644531 78.324219 67.46875 77.953125 67.207031 77.632812 C 66.550781 78.144531 66.007812 78.792969 65.257812 79.199219 Z M 64.296875 19.46875 C 63.574219 19.734375 63.121094 20.363281 62.546875 20.824219 C 60.894531 22.160156 59.113281 23.304688 57.332031 24.457031 C 54.527344 26.269531 51.664062 27.988281 48.785156 29.683594 C 46.75 30.882812 44.671875 32.003906 42.550781 33.042969 C 40.355469 34.113281 38.09375 35.03125 35.816406 35.902344 C 33.441406 36.8125 31.027344 37.628906 28.625 38.46875 C 27.976562 38.695312 27.3125 38.898438 26.605469 38.832031 C 26.449219 38.816406 26.285156 38.824219 26.132812 38.777344 C 25.960938 38.726562 25.753906 38.667969 25.734375 38.441406 C 25.71875 38.226562 25.867188 38.09375 26.050781 38.027344 C 26.597656 37.828125 27.136719 37.597656 27.699219 37.453125 C 29.300781 37.046875 30.820312 36.414062 32.367188 35.871094 C 34.394531 35.164062 36.394531 34.375 38.375 33.558594 C 40.632812 32.625 42.835938 31.582031 44.984375 30.410156 C 47.199219 29.207031 49.371094 27.933594 51.527344 26.632812 C 53.046875 25.714844 54.546875 24.761719 56.050781 23.816406 C 58.070312 22.546875 60.082031 21.265625 61.972656 19.808594 C 62.515625 19.390625 63.113281 19.019531 63.519531 18.445312 C 63.640625 18.277344 63.800781 18.214844 63.992188 18.195312 C 64.160156 18.605469 64.285156 19.023438 64.296875 19.46875 Z M 24.78125 20.699219 C 21.605469 21.976562 18.496094 23.40625 15.289062 24.613281 C 14.082031 25.070312 12.890625 25.578125 11.75 26.195312 C 12.542969 26.246094 13.257812 25.921875 13.96875 25.675781 C 16.21875 24.90625 18.4375 24.054688 20.589844 23.035156 C 22.503906 22.128906 24.4375 21.269531 26.355469 20.378906 C 26.601562 20.265625 26.941406 20.222656 26.980469 19.847656 C 26.246094 20.128906 25.507812 20.402344 24.78125 20.699219 Z M 66.355469 75.96875 C 65.175781 76.800781 64.066406 77.734375 62.710938 78.289062 C 62.5625 78.351562 62.460938 78.476562 62.40625 78.632812 C 62.414062 78.710938 62.460938 78.75 62.539062 78.757812 C 63.453125 78.332031 64.347656 77.878906 65.171875 77.292969 C 65.617188 76.96875 66.019531 76.582031 66.511719 76.324219 C 66.503906 76.183594 66.453125 76.066406 66.355469 75.96875 Z M 26.355469 20.378906 C 24.4375 21.269531 22.503906 22.128906 20.589844 23.035156 C 18.4375 24.054688 16.21875 24.90625 13.96875 25.675781 C 13.257812 25.921875 12.542969 26.246094 11.75 26.195312 C 11.601562 26.242188 11.445312 26.28125 11.300781 26.335938 C 9.507812 27.003906 7.769531 27.808594 6.003906 28.546875 C 4.449219 29.195312 2.917969 29.941406 1.132812 29.925781 C 1.289062 30.835938 1.867188 31.257812 2.617188 31.472656 C 3.316406 31.667969 4.035156 31.667969 4.757812 31.574219 C 6.617188 31.339844 8.375 30.722656 10.144531 30.15625 C 13.3125 29.144531 16.320312 27.726562 19.390625 26.457031 C 25.339844 23.996094 31.035156 21.003906 36.726562 18.015625 C 41.316406 15.605469 45.988281 13.371094 50.652344 11.117188 C 52.957031 10.003906 55.195312 8.792969 57.378906 7.472656 C 57.832031 7.199219 58.269531 6.886719 58.6875 6.558594 C 59.425781 5.980469 60.066406 5.300781 60.519531 4.476562 C 60.988281 3.621094 60.738281 2.730469 59.96875 2.351562 C 59.820312 2.28125 59.703125 2.230469 59.554688 2.398438 C 58.917969 3.117188 58.160156 3.699219 57.378906 4.253906 C 53.882812 6.742188 50.183594 8.871094 46.234375 10.570312 C 45.210938 11.011719 44.191406 11.464844 43.179688 11.941406 C 37.847656 14.453125 32.722656 17.390625 27.292969 19.710938 C 27.226562 19.742188 27.160156 19.777344 27.09375 19.808594 C 27.042969 19.789062 27.007812 19.800781 26.980469 19.847656 C 26.941406 20.222656 26.601562 20.265625 26.355469 20.378906 Z M 67.207031 77.632812 C 66.550781 78.144531 66.007812 78.792969 65.257812 79.199219 C 64.683594 79.511719 64.136719 79.875 63.492188 80.035156 C 63.410156 80.011719 63.378906 79.957031 63.382812 79.875 C 63.738281 79.503906 64.25 79.394531 64.671875 79.136719 C 65.300781 78.75 65.945312 78.386719 66.449219 77.832031 C 66.628906 77.636719 66.824219 77.457031 67.105469 77.421875 C 67.1875 77.46875 67.21875 77.542969 67.207031 77.632812 Z M 64.3125 81.203125 C 64.386719 80.945312 64.613281 80.847656 64.816406 80.726562 C 65.691406 80.183594 66.574219 79.652344 67.300781 78.90625 C 67.4375 78.765625 67.621094 78.726562 67.804688 78.699219 C 67.828125 78.765625 67.851562 78.832031 67.875 78.898438 C 67.339844 79.238281 66.953125 79.75 66.425781 80.105469 C 65.769531 80.546875 65.113281 80.980469 64.402344 81.328125 C 64.375 81.285156 64.34375 81.242188 64.3125 81.203125 Z M 27.09375 19.808594 C 27.160156 19.777344 27.226562 19.742188 27.292969 19.710938 C 27.203125 19.699219 27.136719 19.730469 27.09375 19.808594 Z M 45.859375 56.671875 C 48.328125 56.183594 50.757812 55.558594 53.113281 54.636719 C 56.433594 53.335938 59.613281 51.753906 62.617188 49.832031 C 64.339844 48.730469 65.925781 47.445312 67.488281 46.132812 C 67.6875 45.960938 67.875 45.765625 68.042969 45.558594 C 68.226562 45.332031 68.226562 45.054688 68.097656 44.808594 C 67.941406 44.519531 67.648438 44.546875 67.386719 44.605469 C 67.128906 44.660156 66.90625 44.8125 66.710938 45.003906 C 66.335938 45.378906 65.921875 45.710938 65.523438 46.058594 C 63.265625 48.023438 60.726562 49.554688 58.109375 50.964844 C 56.375 51.898438 54.574219 52.6875 52.742188 53.394531 C 50.914062 54.097656 49.0625 54.742188 47.136719 55.144531 C 46.359375 55.304688 45.601562 55.546875 44.804688 55.605469 C 44.511719 55.628906 44.300781 55.816406 44.261719 56.109375 C 44.214844 56.453125 44.511719 56.546875 44.753906 56.640625 C 44.921875 56.707031 45.117188 56.703125 45.261719 56.726562 C 45.488281 56.707031 45.675781 56.707031 45.859375 56.671875 Z M 45.859375 56.671875 " fill-opacity="1" fill-rule="nonzero"/><path fill="#ede6e2" d="M 70.445312 48.230469 C 70.277344 52.304688 69.839844 56.152344 68.984375 59.953125 C 68.480469 62.171875 67.558594 64.230469 66.636719 66.292969 C 66.160156 67.359375 65.679688 68.421875 65.40625 69.570312 C 65.160156 70.617188 65.234375 71.621094 65.695312 72.601562 C 66.105469 73.46875 66.550781 74.3125 67.027344 75.140625 C 68.539062 77.769531 69.917969 80.460938 71.097656 83.253906 C 71.273438 83.675781 71.417969 84.101562 71.480469 84.550781 C 71.6875 86.109375 70.675781 87.136719 69.109375 86.945312 C 68.027344 86.8125 67.179688 86.222656 66.421875 85.496094 C 65.667969 84.78125 65.035156 83.957031 64.421875 83.117188 C 63.136719 81.359375 61.9375 79.535156 60.53125 77.863281 C 60.152344 77.417969 59.765625 76.976562 59.347656 76.570312 C 58.199219 75.457031 56.847656 74.722656 55.296875 74.289062 C 51.382812 73.191406 47.441406 72.222656 43.46875 71.363281 C 39.867188 70.582031 36.625 68.929688 33.5 67.035156 C 28.195312 63.820312 23.640625 59.746094 19.667969 54.988281 C 14.738281 49.082031 10.128906 42.945312 6.15625 36.34375 C 5.527344 35.296875 4.878906 34.257812 4.289062 33.1875 C 4.042969 32.742188 3.753906 32.535156 3.25 32.503906 C 2.09375 32.4375 1.179688 31.90625 0.484375 30.976562 C 0.246094 30.664062 0.148438 30.347656 0.160156 29.949219 C 0.257812 26.875 1.9375 24.773438 4.390625 23.226562 C 6.597656 21.839844 8.980469 20.78125 11.46875 19.976562 C 13.566406 19.300781 15.714844 18.792969 17.804688 18.089844 C 20.222656 17.277344 22.597656 16.34375 24.859375 15.167969 C 32.425781 11.230469 40.121094 7.570312 47.9375 4.164062 C 50.371094 3.105469 52.769531 1.964844 55.195312 0.886719 C 57.207031 -0.0078125 59.304688 0.519531 60.921875 1.878906 C 61.816406 2.628906 61.996094 4.042969 61.246094 5.070312 C 60.738281 5.769531 60.820312 6.289062 61.125 7.003906 C 63.851562 13.4375 65.785156 20.109375 67.078125 26.972656 C 67.625 29.871094 68.417969 32.71875 69 35.605469 C 69.855469 39.855469 70.652344 44.675781 70.445312 48.230469 Z M 64.3125 81.203125 C 64.34375 81.242188 64.375 81.285156 64.402344 81.328125 C 65.128906 82.507812 65.960938 83.605469 66.910156 84.609375 C 67.429688 85.15625 68.023438 85.605469 68.734375 85.859375 C 69.214844 86.03125 69.746094 86.125 70.175781 85.761719 C 70.617188 85.386719 70.542969 84.859375 70.429688 84.355469 C 70.40625 84.25 70.382812 84.148438 70.347656 84.046875 C 69.652344 82.269531 68.835938 80.550781 67.875 78.898438 C 67.851562 78.832031 67.828125 78.765625 67.804688 78.699219 C 67.644531 78.324219 67.46875 77.953125 67.207031 77.632812 C 67.21875 77.542969 67.1875 77.46875 67.105469 77.421875 C 66.949219 77.03125 66.746094 76.667969 66.511719 76.324219 C 66.503906 76.183594 66.453125 76.066406 66.355469 75.96875 C 65.785156 74.980469 65.238281 73.976562 64.765625 72.933594 C 64.25 71.800781 64.152344 70.636719 64.429688 69.429688 C 64.671875 68.359375 65.09375 67.355469 65.53125 66.359375 C 66.371094 64.4375 67.289062 62.542969 67.832031 60.503906 C 68.328125 58.621094 68.648438 56.710938 68.894531 54.78125 C 69.359375 51.136719 69.707031 47.492188 69.28125 43.8125 C 68.847656 40.035156 68.253906 36.28125 67.304688 32.597656 C 66.765625 30.511719 66.363281 28.398438 65.945312 26.285156 C 65.488281 23.992188 64.960938 21.714844 64.296875 19.46875 C 64.285156 19.023438 64.160156 18.605469 63.992188 18.195312 C 63.015625 14.28125 61.472656 10.570312 59.964844 6.75 C 59.292969 7.320312 58.710938 7.78125 58.078125 8.167969 C 56.308594 9.246094 54.523438 10.308594 52.65625 11.210938 C 47.9375 13.480469 43.222656 15.753906 38.558594 18.132812 C 33.660156 20.636719 28.851562 23.304688 23.820312 25.546875 C 19.789062 27.339844 15.753906 29.121094 11.621094 30.660156 C 9.753906 31.359375 7.839844 31.914062 5.898438 32.382812 C 5.632812 32.445312 5.3125 32.359375 5.121094 32.578125 C 5.101562 32.804688 5.226562 32.921875 5.304688 33.058594 C 9.761719 40.675781 14.894531 47.8125 20.582031 54.558594 C 24.664062 59.402344 29.367188 63.515625 34.851562 66.699219 C 37.617188 68.308594 40.484375 69.714844 43.636719 70.398438 C 47.585938 71.25 51.503906 72.214844 55.398438 73.300781 C 57.355469 73.84375 59.015625 74.796875 60.414062 76.253906 C 61.128906 77 61.757812 77.824219 62.40625 78.632812 C 62.414062 78.710938 62.460938 78.75 62.539062 78.757812 C 62.785156 79.15625 63.0625 79.53125 63.382812 79.875 C 63.378906 79.957031 63.410156 80.011719 63.492188 80.035156 C 63.71875 80.457031 63.996094 80.84375 64.3125 81.203125 Z M 27.292969 19.710938 C 27.203125 19.699219 27.136719 19.730469 27.09375 19.808594 C 27.042969 19.789062 27.007812 19.800781 26.980469 19.847656 C 26.246094 20.128906 25.507812 20.402344 24.78125 20.699219 C 21.605469 21.976562 18.496094 23.40625 15.289062 24.613281 C 14.082031 25.070312 12.890625 25.578125 11.75 26.195312 C 11.601562 26.242188 11.445312 26.28125 11.300781 26.335938 C 9.507812 27.003906 7.769531 27.808594 6.003906 28.546875 C 4.449219 29.195312 2.917969 29.941406 1.132812 29.925781 C 1.289062 30.835938 1.867188 31.257812 2.617188 31.472656 C 3.316406 31.667969 4.035156 31.667969 4.757812 31.574219 C 6.617188 31.339844 8.375 30.722656 10.144531 30.15625 C 13.3125 29.144531 16.320312 27.726562 19.390625 26.457031 C 25.339844 23.996094 31.035156 21.003906 36.726562 18.015625 C 41.316406 15.605469 45.988281 13.371094 50.652344 11.117188 C 52.957031 10.003906 55.195312 8.792969 57.378906 7.472656 C 57.832031 7.199219 58.269531 6.886719 58.6875 6.558594 C 59.425781 5.980469 60.066406 5.300781 60.519531 4.476562 C 60.988281 3.621094 60.738281 2.730469 59.96875 2.351562 C 59.820312 2.28125 59.703125 2.230469 59.554688 2.398438 C 58.917969 3.117188 58.160156 3.699219 57.378906 4.253906 C 53.882812 6.742188 50.183594 8.871094 46.234375 10.570312 C 45.210938 11.011719 44.191406 11.464844 43.179688 11.941406 C 37.847656 14.453125 32.722656 17.390625 27.292969 19.710938 Z M 2.011719 28.996094 C 2.976562 28.914062 3.855469 28.601562 4.695312 28.191406 C 6.988281 27.078125 9.34375 26.097656 11.6875 25.089844 C 15.765625 23.339844 19.890625 21.703125 23.980469 19.988281 C 27.730469 18.414062 31.492188 16.878906 35.085938 14.960938 C 38.394531 13.195312 41.695312 11.417969 45.160156 9.976562 C 49.480469 8.183594 53.476562 5.824219 57.320312 3.191406 C 57.691406 2.9375 58.003906 2.601562 58.359375 2.324219 C 58.816406 1.972656 58.550781 1.613281 58.183594 1.5 C 57.632812 1.332031 57.074219 1.371094 56.53125 1.542969 C 56.050781 1.699219 55.582031 1.886719 55.113281 2.070312 C 52.269531 3.199219 49.539062 4.574219 46.738281 5.796875 C 39.960938 8.75 33.289062 11.917969 26.738281 15.34375 C 23.386719 17.097656 19.910156 18.550781 16.277344 19.621094 C 14.773438 20.066406 13.257812 20.472656 11.765625 20.945312 C 9.039062 21.8125 6.476562 23.023438 4.101562 24.628906 C 2.917969 25.429688 2.121094 26.535156 1.550781 27.824219 C 1.480469 27.992188 1.425781 28.179688 1.417969 28.359375 C 1.394531 28.796875 1.601562 28.992188 2.011719 28.996094 Z M 2.011719 28.996094 " fill-opacity="1" fill-rule="nonzero"/></g><path fill="#bdb0ab" d="M 2.011719 28.996094 C 1.601562 28.992188 1.394531 28.796875 1.417969 28.359375 C 1.425781 28.179688 1.480469 27.992188 1.550781 27.824219 C 2.121094 26.535156 2.917969 25.429688 4.101562 24.628906 C 6.476562 23.023438 9.039062 21.8125 11.765625 20.945312 C 13.257812 20.472656 14.773438 20.066406 16.277344 19.621094 C 19.910156 18.550781 23.386719 17.097656 26.738281 15.34375 C 33.289062 11.917969 39.960938 8.75 46.738281 5.796875 C 49.539062 4.574219 52.269531 3.199219 55.113281 2.070312 C 55.582031 1.886719 56.050781 1.699219 56.53125 1.542969 C 57.074219 1.371094 57.632812 1.332031 58.183594 1.5 C 58.550781 1.613281 58.816406 1.972656 58.359375 2.324219 C 58.003906 2.601562 57.691406 2.9375 57.320312 3.191406 C 53.476562 5.824219 49.480469 8.183594 45.160156 9.976562 C 41.695312 11.417969 38.394531 13.195312 35.085938 14.960938 C 31.492188 16.878906 27.730469 18.414062 23.980469 19.988281 C 19.890625 21.703125 15.765625 23.339844 11.6875 25.089844 C 9.34375 26.097656 6.988281 27.078125 4.695312 28.191406 C 3.855469 28.601562 2.976562 28.914062 2.011719 28.996094 Z M 2.011719 28.996094 " fill-opacity="1" fill-rule="nonzero"/><path fill="#ffffff" d="M 62.40625 78.632812 C 61.757812 77.824219 61.128906 77 60.414062 76.253906 C 59.015625 74.796875 57.355469 73.84375 55.398438 73.300781 C 51.503906 72.214844 47.585938 71.25 43.636719 70.398438 C 40.484375 69.714844 37.617188 68.308594 34.851562 66.699219 C 29.367188 63.515625 24.664062 59.402344 20.582031 54.558594 C 14.894531 47.8125 9.761719 40.675781 5.304688 33.058594 C 5.226562 32.921875 5.101562 32.804688 5.121094 32.578125 C 5.3125 32.359375 5.632812 32.445312 5.898438 32.382812 C 7.839844 31.914062 9.753906 31.359375 11.621094 30.660156 C 15.753906 29.121094 19.789062 27.339844 23.820312 25.546875 C 28.851562 23.304688 33.660156 20.636719 38.558594 18.132812 C 43.222656 15.753906 47.9375 13.480469 52.65625 11.210938 C 54.523438 10.308594 56.308594 9.246094 58.078125 8.167969 C 58.710938 7.78125 59.292969 7.320312 59.964844 6.75 C 61.472656 10.570312 63.015625 14.28125 63.992188 18.195312 C 63.800781 18.214844 63.640625 18.277344 63.519531 18.445312 C 63.113281 19.019531 62.515625 19.390625 61.972656 19.808594 C 60.082031 21.265625 58.070312 22.546875 56.050781 23.816406 C 54.546875 24.761719 53.046875 25.714844 51.527344 26.632812 C 49.371094 27.933594 47.199219 29.207031 44.984375 30.410156 C 42.835938 31.582031 40.632812 32.625 38.375 33.558594 C 36.394531 34.375 34.394531 35.164062 32.367188 35.871094 C 30.820312 36.414062 29.300781 37.046875 27.699219 37.453125 C 27.136719 37.597656 26.597656 37.828125 26.050781 38.027344 C 25.867188 38.09375 25.71875 38.226562 25.734375 38.441406 C 25.753906 38.667969 25.960938 38.726562 26.132812 38.777344 C 26.285156 38.824219 26.449219 38.816406 26.605469 38.832031 C 27.3125 38.898438 27.976562 38.695312 28.625 38.46875 C 31.027344 37.628906 33.441406 36.8125 35.816406 35.902344 C 38.09375 35.03125 40.355469 34.113281 42.550781 33.042969 C 44.671875 32.003906 46.75 30.882812 48.785156 29.683594 C 51.664062 27.988281 54.527344 26.269531 57.332031 24.457031 C 59.113281 23.304688 60.894531 22.160156 62.546875 20.824219 C 63.121094 20.363281 63.574219 19.734375 64.296875 19.46875 C 64.960938 21.714844 65.488281 23.992188 65.945312 26.285156 C 66.363281 28.398438 66.765625 30.511719 67.304688 32.597656 C 68.253906 36.28125 68.847656 40.035156 69.28125 43.8125 C 69.707031 47.492188 69.359375 51.136719 68.894531 54.78125 C 68.648438 56.710938 68.328125 58.621094 67.832031 60.503906 C 67.289062 62.542969 66.371094 64.4375 65.53125 66.359375 C 65.09375 67.355469 64.671875 68.359375 64.429688 69.429688 C 64.152344 70.636719 64.25 71.800781 64.765625 72.933594 C 65.238281 73.976562 65.785156 74.980469 66.355469 75.96875 C 65.175781 76.800781 64.066406 77.734375 62.710938 78.289062 C 62.5625 78.351562 62.460938 78.476562 62.40625 78.632812 Z M 45.261719 56.726562 C 45.488281 56.707031 45.675781 56.707031 45.859375 56.671875 C 48.328125 56.183594 50.757812 55.558594 53.113281 54.636719 C 56.433594 53.335938 59.613281 51.753906 62.617188 49.832031 C 64.339844 48.730469 65.925781 47.445312 67.488281 46.132812 C 67.6875 45.960938 67.875 45.765625 68.042969 45.558594 C 68.226562 45.332031 68.226562 45.054688 68.097656 44.808594 C 67.941406 44.519531 67.648438 44.546875 67.386719 44.605469 C 67.128906 44.660156 66.90625 44.8125 66.710938 45.003906 C 66.335938 45.378906 65.921875 45.710938 65.523438 46.058594 C 63.265625 48.023438 60.726562 49.554688 58.109375 50.964844 C 56.375 51.898438 54.574219 52.6875 52.742188 53.394531 C 50.914062 54.097656 49.0625 54.742188 47.136719 55.144531 C 46.359375 55.304688 45.601562 55.546875 44.804688 55.605469 C 44.511719 55.628906 44.300781 55.816406 44.261719 56.109375 C 44.214844 56.453125 44.511719 56.546875 44.753906 56.640625 C 44.921875 56.707031 45.117188 56.703125 45.261719 56.726562 Z M 66.425781 80.105469 C 65.769531 80.546875 65.113281 80.980469 64.402344 81.328125 C 65.128906 82.507812 65.960938 83.605469 66.910156 84.609375 C 67.429688 85.15625 68.023438 85.605469 68.734375 85.859375 C 69.214844 86.03125 69.746094 86.125 70.175781 85.761719 C 70.617188 85.386719 70.542969 84.859375 70.429688 84.355469 C 70.40625 84.25 70.382812 84.148438 70.347656 84.046875 C 69.652344 82.269531 68.835938 80.550781 67.875 78.898438 C 67.339844 79.238281 66.953125 79.75 66.425781 80.105469 Z M 65.171875 77.292969 C 64.347656 77.878906 63.453125 78.332031 62.539062 78.757812 C 62.785156 79.15625 63.0625 79.53125 63.382812 79.875 C 63.738281 79.503906 64.25 79.394531 64.671875 79.136719 C 65.300781 78.75 65.945312 78.386719 66.449219 77.832031 C 66.628906 77.636719 66.824219 77.457031 67.105469 77.421875 C 66.949219 77.03125 66.746094 76.667969 66.511719 76.324219 C 66.019531 76.582031 65.617188 76.96875 65.171875 77.292969 Z M 65.257812 79.199219 C 64.683594 79.511719 64.136719 79.875 63.492188 80.035156 C 63.71875 80.457031 63.996094 80.84375 64.3125 81.203125 C 64.386719 80.945312 64.613281 80.847656 64.816406 80.726562 C 65.691406 80.183594 66.574219 79.652344 67.300781 78.90625 C 67.4375 78.765625 67.621094 78.726562 67.804688 78.699219 C 67.644531 78.324219 67.46875 77.953125 67.207031 77.632812 C 66.550781 78.144531 66.007812 78.792969 65.257812 79.199219 Z M 65.257812 79.199219 " fill-opacity="1" fill-rule="nonzero"/><path fill="#ede6e2" d="M 64.296875 19.46875 C 63.574219 19.734375 63.121094 20.363281 62.546875 20.824219 C 60.894531 22.160156 59.113281 23.304688 57.332031 24.457031 C 54.527344 26.269531 51.664062 27.988281 48.785156 29.683594 C 46.75 30.882812 44.671875 32.003906 42.550781 33.042969 C 40.355469 34.113281 38.09375 35.03125 35.816406 35.902344 C 33.441406 36.8125 31.027344 37.628906 28.625 38.46875 C 27.976562 38.695312 27.3125 38.898438 26.605469 38.832031 C 26.449219 38.816406 26.285156 38.824219 26.132812 38.777344 C 25.960938 38.726562 25.753906 38.667969 25.734375 38.441406 C 25.71875 38.226562 25.867188 38.09375 26.050781 38.027344 C 26.597656 37.828125 27.136719 37.597656 27.699219 37.453125 C 29.300781 37.046875 30.820312 36.414062 32.367188 35.871094 C 34.394531 35.164062 36.394531 34.375 38.375 33.558594 C 40.632812 32.625 42.835938 31.582031 44.984375 30.410156 C 47.199219 29.207031 49.371094 27.933594 51.527344 26.632812 C 53.046875 25.714844 54.546875 24.761719 56.050781 23.816406 C 58.070312 22.546875 60.082031 21.265625 61.972656 19.808594 C 62.515625 19.390625 63.113281 19.019531 63.519531 18.445312 C 63.640625 18.277344 63.800781 18.214844 63.992188 18.195312 C 64.160156 18.605469 64.285156 19.023438 64.296875 19.46875 Z M 24.78125 20.699219 C 21.605469 21.976562 18.496094 23.40625 15.289062 24.613281 C 14.082031 25.070312 12.890625 25.578125 11.75 26.195312 C 12.542969 26.246094 13.257812 25.921875 13.96875 25.675781 C 16.21875 24.90625 18.4375 24.054688 20.589844 23.035156 C 22.503906 22.128906 24.4375 21.269531 26.355469 20.378906 C 26.601562 20.265625 26.941406 20.222656 26.980469 19.847656 C 26.246094 20.128906 25.507812 20.402344 24.78125 20.699219 Z M 66.355469 75.96875 C 65.175781 76.800781 64.066406 77.734375 62.710938 78.289062 C 62.5625 78.351562 62.460938 78.476562 62.40625 78.632812 C 62.414062 78.710938 62.460938 78.75 62.539062 78.757812 C 63.453125 78.332031 64.347656 77.878906 65.171875 77.292969 C 65.617188 76.96875 66.019531 76.582031 66.511719 76.324219 C 66.503906 76.183594 66.453125 76.066406 66.355469 75.96875 Z M 26.355469 20.378906 C 24.4375 21.269531 22.503906 22.128906 20.589844 23.035156 C 18.4375 24.054688 16.21875 24.90625 13.96875 25.675781 C 13.257812 25.921875 12.542969 26.246094 11.75 26.195312 C 11.601562 26.242188 11.445312 26.28125 11.300781 26.335938 C 9.507812 27.003906 7.769531 27.808594 6.003906 28.546875 C 4.449219 29.195312 2.917969 29.941406 1.132812 29.925781 C 1.289062 30.835938 1.867188 31.257812 2.617188 31.472656 C 3.316406 31.667969 4.035156 31.667969 4.757812 31.574219 C 6.617188 31.339844 8.375 30.722656 10.144531 30.15625 C 13.3125 29.144531 16.320312 27.726562 19.390625 26.457031 C 25.339844 23.996094 31.035156 21.003906 36.726562 18.015625 C 41.316406 15.605469 45.988281 13.371094 50.652344 11.117188 C 52.957031 10.003906 55.195312 8.792969 57.378906 7.472656 C 57.832031 7.199219 58.269531 6.886719 58.6875 6.558594 C 59.425781 5.980469 60.066406 5.300781 60.519531 4.476562 C 60.988281 3.621094 60.738281 2.730469 59.96875 2.351562 C 59.820312 2.28125 59.703125 2.230469 59.554688 2.398438 C 58.917969 3.117188 58.160156 3.699219 57.378906 4.253906 C 53.882812 6.742188 50.183594 8.871094 46.234375 10.570312 C 45.210938 11.011719 44.191406 11.464844 43.179688 11.941406 C 37.847656 14.453125 32.722656 17.390625 27.292969 19.710938 C 27.226562 19.742188 27.160156 19.777344 27.09375 19.808594 C 27.042969 19.789062 27.007812 19.800781 26.980469 19.847656 C 26.941406 20.222656 26.601562 20.265625 26.355469 20.378906 Z M 67.207031 77.632812 C 66.550781 78.144531 66.007812 78.792969 65.257812 79.199219 C 64.683594 79.511719 64.136719 79.875 63.492188 80.035156 C 63.410156 80.011719 63.378906 79.957031 63.382812 79.875 C 63.738281 79.503906 64.25 79.394531 64.671875 79.136719 C 65.300781 78.75 65.945312 78.386719 66.449219 77.832031 C 66.628906 77.636719 66.824219 77.457031 67.105469 77.421875 C 67.1875 77.46875 67.21875 77.542969 67.207031 77.632812 Z M 64.3125 81.203125 C 64.386719 80.945312 64.613281 80.847656 64.816406 80.726562 C 65.691406 80.183594 66.574219 79.652344 67.300781 78.90625 C 67.4375 78.765625 67.621094 78.726562 67.804688 78.699219 C 67.828125 78.765625 67.851562 78.832031 67.875 78.898438 C 67.339844 79.238281 66.953125 79.75 66.425781 80.105469 C 65.769531 80.546875 65.113281 80.980469 64.402344 81.328125 C 64.375 81.285156 64.34375 81.242188 64.3125 81.203125 Z M 27.09375 19.808594 C 27.160156 19.777344 27.226562 19.742188 27.292969 19.710938 C 27.203125 19.699219 27.136719 19.730469 27.09375 19.808594 Z M 45.859375 56.671875 C 48.328125 56.183594 50.757812 55.558594 53.113281 54.636719 C 56.433594 53.335938 59.613281 51.753906 62.617188 49.832031 C 64.339844 48.730469 65.925781 47.445312 67.488281 46.132812 C 67.6875 45.960938 67.875 45.765625 68.042969 45.558594 C 68.226562 45.332031 68.226562 45.054688 68.097656 44.808594 C 67.941406 44.519531 67.648438 44.546875 67.386719 44.605469 C 67.128906 44.660156 66.90625 44.8125 66.710938 45.003906 C 66.335938 45.378906 65.921875 45.710938 65.523438 46.058594 C 63.265625 48.023438 60.726562 49.554688 58.109375 50.964844 C 56.375 51.898438 54.574219 52.6875 52.742188 53.394531 C 50.914062 54.097656 49.0625 54.742188 47.136719 55.144531 C 46.359375 55.304688 45.601562 55.546875 44.804688 55.605469 C 44.511719 55.628906 44.300781 55.816406 44.261719 56.109375 C 44.214844 56.453125 44.511719 56.546875 44.753906 56.640625 C 44.921875 56.707031 45.117188 56.703125 45.261719 56.726562 C 45.488281 56.707031 45.675781 56.707031 45.859375 56.671875 Z M 45.859375 56.671875 " fill-opacity="1" fill-rule="nonzero"/><g clip-path="url(#52f458c1d3)"><path fill="#ede6e2" d="M 70.445312 48.230469 C 70.277344 52.304688 69.839844 56.152344 68.984375 59.953125 C 68.480469 62.171875 67.558594 64.230469 66.636719 66.292969 C 66.160156 67.359375 65.679688 68.421875 65.40625 69.570312 C 65.160156 70.617188 65.234375 71.621094 65.695312 72.601562 C 66.105469 73.46875 66.550781 74.3125 67.027344 75.140625 C 68.539062 77.769531 69.917969 80.460938 71.097656 83.253906 C 71.273438 83.675781 71.417969 84.101562 71.480469 84.550781 C 71.6875 86.109375 70.675781 87.136719 69.109375 86.945312 C 68.027344 86.8125 67.179688 86.222656 66.421875 85.496094 C 65.667969 84.78125 65.035156 83.957031 64.421875 83.117188 C 63.136719 81.359375 61.9375 79.535156 60.53125 77.863281 C 60.152344 77.417969 59.765625 76.976562 59.347656 76.570312 C 58.199219 75.457031 56.847656 74.722656 55.296875 74.289062 C 51.382812 73.191406 47.441406 72.222656 43.46875 71.363281 C 39.867188 70.582031 36.625 68.929688 33.5 67.035156 C 28.195312 63.820312 23.640625 59.746094 19.667969 54.988281 C 14.738281 49.082031 10.128906 42.945312 6.15625 36.34375 C 5.527344 35.296875 4.878906 34.257812 4.289062 33.1875 C 4.042969 32.742188 3.753906 32.535156 3.25 32.503906 C 2.09375 32.4375 1.179688 31.90625 0.484375 30.976562 C 0.246094 30.664062 0.148438 30.347656 0.160156 29.949219 C 0.257812 26.875 1.9375 24.773438 4.390625 23.226562 C 6.597656 21.839844 8.980469 20.78125 11.46875 19.976562 C 13.566406 19.300781 15.714844 18.792969 17.804688 18.089844 C 20.222656 17.277344 22.597656 16.34375 24.859375 15.167969 C 32.425781 11.230469 40.121094 7.570312 47.9375 4.164062 C 50.371094 3.105469 52.769531 1.964844 55.195312 0.886719 C 57.207031 -0.0078125 59.304688 0.519531 60.921875 1.878906 C 61.816406 2.628906 61.996094 4.042969 61.246094 5.070312 C 60.738281 5.769531 60.820312 6.289062 61.125 7.003906 C 63.851562 13.4375 65.785156 20.109375 67.078125 26.972656 C 67.625 29.871094 68.417969 32.71875 69 35.605469 C 69.855469 39.855469 70.652344 44.675781 70.445312 48.230469 Z M 64.3125 81.203125 C 64.34375 81.242188 64.375 81.285156 64.402344 81.328125 C 65.128906 82.507812 65.960938 83.605469 66.910156 84.609375 C 67.429688 85.15625 68.023438 85.605469 68.734375 85.859375 C 69.214844 86.03125 69.746094 86.125 70.175781 85.761719 C 70.617188 85.386719 70.542969 84.859375 70.429688 84.355469 C 70.40625 84.25 70.382812 84.148438 70.347656 84.046875 C 69.652344 82.269531 68.835938 80.550781 67.875 78.898438 C 67.851562 78.832031 67.828125 78.765625 67.804688 78.699219 C 67.644531 78.324219 67.46875 77.953125 67.207031 77.632812 C 67.21875 77.542969 67.1875 77.46875 67.105469 77.421875 C 66.949219 77.03125 66.746094 76.667969 66.511719 76.324219 C 66.503906 76.183594 66.453125 76.066406 66.355469 75.96875 C 65.785156 74.980469 65.238281 73.976562 64.765625 72.933594 C 64.25 71.800781 64.152344 70.636719 64.429688 69.429688 C 64.671875 68.359375 65.09375 67.355469 65.53125 66.359375 C 66.371094 64.4375 67.289062 62.542969 67.832031 60.503906 C 68.328125 58.621094 68.648438 56.710938 68.894531 54.78125 C 69.359375 51.136719 69.707031 47.492188 69.28125 43.8125 C 68.847656 40.035156 68.253906 36.28125 67.304688 32.597656 C 66.765625 30.511719 66.363281 28.398438 65.945312 26.285156 C 65.488281 23.992188 64.960938 21.714844 64.296875 19.46875 C 64.285156 19.023438 64.160156 18.605469 63.992188 18.195312 C 63.015625 14.28125 61.472656 10.570312 59.964844 6.75 C 59.292969 7.320312 58.710938 7.78125 58.078125 8.167969 C 56.308594 9.246094 54.523438 10.308594 52.65625 11.210938 C 47.9375 13.480469 43.222656 15.753906 38.558594 18.132812 C 33.660156 20.636719 28.851562 23.304688 23.820312 25.546875 C 19.789062 27.339844 15.753906 29.121094 11.621094 30.660156 C 9.753906 31.359375 7.839844 31.914062 5.898438 32.382812 C 5.632812 32.445312 5.3125 32.359375 5.121094 32.578125 C 5.101562 32.804688 5.226562 32.921875 5.304688 33.058594 C 9.761719 40.675781 14.894531 47.8125 20.582031 54.558594 C 24.664062 59.402344 29.367188 63.515625 34.851562 66.699219 C 37.617188 68.308594 40.484375 69.714844 43.636719 70.398438 C 47.585938 71.25 51.503906 72.214844 55.398438 73.300781 C 57.355469 73.84375 59.015625 74.796875 60.414062 76.253906 C 61.128906 77 61.757812 77.824219 62.40625 78.632812 C 62.414062 78.710938 62.460938 78.75 62.539062 78.757812 C 62.785156 79.15625 63.0625 79.53125 63.382812 79.875 C 63.378906 79.957031 63.410156 80.011719 63.492188 80.035156 C 63.71875 80.457031 63.996094 80.84375 64.3125 81.203125 Z M 27.292969 19.710938 C 27.203125 19.699219 27.136719 19.730469 27.09375 19.808594 C 27.042969 19.789062 27.007812 19.800781 26.980469 19.847656 C 26.246094 20.128906 25.507812 20.402344 24.78125 20.699219 C 21.605469 21.976562 18.496094 23.40625 15.289062 24.613281 C 14.082031 25.070312 12.890625 25.578125 11.75 26.195312 C 11.601562 26.242188 11.445312 26.28125 11.300781 26.335938 C 9.507812 27.003906 7.769531 27.808594 6.003906 28.546875 C 4.449219 29.195312 2.917969 29.941406 1.132812 29.925781 C 1.289062 30.835938 1.867188 31.257812 2.617188 31.472656 C 3.316406 31.667969 4.035156 31.667969 4.757812 31.574219 C 6.617188 31.339844 8.375 30.722656 10.144531 30.15625 C 13.3125 29.144531 16.320312 27.726562 19.390625 26.457031 C 25.339844 23.996094 31.035156 21.003906 36.726562 18.015625 C 41.316406 15.605469 45.988281 13.371094 50.652344 11.117188 C 52.957031 10.003906 55.195312 8.792969 57.378906 7.472656 C 57.832031 7.199219 58.269531 6.886719 58.6875 6.558594 C 59.425781 5.980469 60.066406 5.300781 60.519531 4.476562 C 60.988281 3.621094 60.738281 2.730469 59.96875 2.351562 C 59.820312 2.28125 59.703125 2.230469 59.554688 2.398438 C 58.917969 3.117188 58.160156 3.699219 57.378906 4.253906 C 53.882812 6.742188 50.183594 8.871094 46.234375 10.570312 C 45.210938 11.011719 44.191406 11.464844 43.179688 11.941406 C 37.847656 14.453125 32.722656 17.390625 27.292969 19.710938 Z M 2.011719 28.996094 C 2.976562 28.914062 3.855469 28.601562 4.695312 28.191406 C 6.988281 27.078125 9.34375 26.097656 11.6875 25.089844 C 15.765625 23.339844 19.890625 21.703125 23.980469 19.988281 C 27.730469 18.414062 31.492188 16.878906 35.085938 14.960938 C 38.394531 13.195312 41.695312 11.417969 45.160156 9.976562 C 49.480469 8.183594 53.476562 5.824219 57.320312 3.191406 C 57.691406 2.9375 58.003906 2.601562 58.359375 2.324219 C 58.816406 1.972656 58.550781 1.613281 58.183594 1.5 C 57.632812 1.332031 57.074219 1.371094 56.53125 1.542969 C 56.050781 1.699219 55.582031 1.886719 55.113281 2.070312 C 52.269531 3.199219 49.539062 4.574219 46.738281 5.796875 C 39.960938 8.75 33.289062 11.917969 26.738281 15.34375 C 23.386719 17.097656 19.910156 18.550781 16.277344 19.621094 C 14.773438 20.066406 13.257812 20.472656 11.765625 20.945312 C 9.039062 21.8125 6.476562 23.023438 4.101562 24.628906 C 2.917969 25.429688 2.121094 26.535156 1.550781 27.824219 C 1.480469 27.992188 1.425781 28.179688 1.417969 28.359375 C 1.394531 28.796875 1.601562 28.992188 2.011719 28.996094 Z M 2.011719 28.996094 C 1.601562 28.992188 1.394531 28.796875 1.417969 28.359375 C 1.425781 28.179688 1.480469 27.992188 1.550781 27.824219 C 2.121094 26.535156 2.917969 25.429688 4.101562 24.628906 C 6.476562 23.023438 9.039062 21.8125 11.765625 20.945312 C 13.257812 20.472656 14.773438 20.066406 16.277344 19.621094 C 19.910156 18.550781 23.386719 17.097656 26.738281 15.34375 C 33.289062 11.917969 39.960938 8.75 46.738281 5.796875 C 49.539062 4.574219 52.269531 3.199219 55.113281 2.070312 C 55.582031 1.886719 56.050781 1.699219 56.53125 1.542969 C 57.074219 1.371094 57.632812 1.332031 58.183594 1.5 C 58.550781 1.613281 58.816406 1.972656 58.359375 2.324219 C 58.003906 2.601562 57.691406 2.9375 57.320312 3.191406 C 53.476562 5.824219 49.480469 8.183594 45.160156 9.976562 C 41.695312 11.417969 38.394531 13.195312 35.085938 14.960938 C 31.492188 16.878906 27.730469 18.414062 23.980469 19.988281 C 19.890625 21.703125 15.765625 23.339844 11.6875 25.089844 C 9.34375 26.097656 6.988281 27.078125 4.695312 28.191406 C 3.855469 28.601562 2.976562 28.914062 2.011719 28.996094 Z M 62.40625 78.632812 C 61.757812 77.824219 61.128906 77 60.414062 76.253906 C 59.015625 74.796875 57.355469 73.84375 55.398438 73.300781 C 51.503906 72.214844 47.585938 71.25 43.636719 70.398438 C 40.484375 69.714844 37.617188 68.308594 34.851562 66.699219 C 29.367188 63.515625 24.664062 59.402344 20.582031 54.558594 C 14.894531 47.8125 9.761719 40.675781 5.304688 33.058594 C 5.226562 32.921875 5.101562 32.804688 5.121094 32.578125 C 5.3125 32.359375 5.632812 32.445312 5.898438 32.382812 C 7.839844 31.914062 9.753906 31.359375 11.621094 30.660156 C 15.753906 29.121094 19.789062 27.339844 23.820312 25.546875 C 28.851562 23.304688 33.660156 20.636719 38.558594 18.132812 C 43.222656 15.753906 47.9375 13.480469 52.65625 11.210938 C 54.523438 10.308594 56.308594 9.246094 58.078125 8.167969 C 58.710938 7.78125 59.292969 7.320312 59.964844 6.75 C 61.472656 10.570312 63.015625 14.28125 63.992188 18.195312 C 63.800781 18.214844 63.640625 18.277344 63.519531 18.445312 C 63.113281 19.019531 62.515625 19.390625 61.972656 19.808594 C 60.082031 21.265625 58.070312 22.546875 56.050781 23.816406 C 54.546875 24.761719 53.046875 25.714844 51.527344 26.632812 C 49.371094 27.933594 47.199219 29.207031 44.984375 30.410156 C 42.835938 31.582031 40.632812 32.625 38.375 33.558594 C 36.394531 34.375 34.394531 35.164062 32.367188 35.871094 C 30.820312 36.414062 29.300781 37.046875 27.699219 37.453125 C 27.136719 37.597656 26.597656 37.828125 26.050781 38.027344 C 25.867188 38.09375 25.71875 38.226562 25.734375 38.441406 C 25.753906 38.667969 25.960938 38.726562 26.132812 38.777344 C 26.285156 38.824219 26.449219 38.816406 26.605469 38.832031 C 27.3125 38.898438 27.976562 38.695312 28.625 38.46875 C 31.027344 37.628906 33.441406 36.8125 35.816406 35.902344 C 38.09375 35.03125 40.355469 34.113281 42.550781 33.042969 C 44.671875 32.003906 46.75 30.882812 48.785156 29.683594 C 51.664062 27.988281 54.527344 26.269531 57.332031 24.457031 C 59.113281 23.304688 60.894531 22.160156 62.546875 20.824219 C 63.121094 20.363281 63.574219 19.734375 64.296875 19.46875 C 64.960938 21.714844 65.488281 23.992188 65.945312 26.285156 C 66.363281 28.398438 66.765625 30.511719 67.304688 32.597656 C 68.253906 36.28125 68.847656 40.035156 69.28125 43.8125 C 69.707031 47.492188 69.359375 51.136719 68.894531 54.78125 C 68.648438 56.710938 68.328125 58.621094 67.832031 60.503906 C 67.289062 62.542969 66.371094 64.4375 65.53125 66.359375 C 65.09375 67.355469 64.671875 68.359375 64.429688 69.429688 C 64.152344 70.636719 64.25 71.800781 64.765625 72.933594 C 65.238281 73.976562 65.785156 74.980469 66.355469 75.96875 C 65.175781 76.800781 64.066406 77.734375 62.710938 78.289062 C 62.5625 78.351562 62.460938 78.476562 62.40625 78.632812 Z M 45.261719 56.726562 C 45.488281 56.707031 45.675781 56.707031 45.859375 56.671875 C 48.328125 56.183594 50.757812 55.558594 53.113281 54.636719 C 56.433594 53.335938 59.613281 51.753906 62.617188 49.832031 C 64.339844 48.730469 65.925781 47.445312 67.488281 46.132812 C 67.6875 45.960938 67.875 45.765625 68.042969 45.558594 C 68.226562 45.332031 68.226562 45.054688 68.097656 44.808594 C 67.941406 44.519531 67.648438 44.546875 67.386719 44.605469 C 67.128906 44.660156 66.90625 44.8125 66.710938 45.003906 C 66.335938 45.378906 65.921875 45.710938 65.523438 46.058594 C 63.265625 48.023438 60.726562 49.554688 58.109375 50.964844 C 56.375 51.898438 54.574219 52.6875 52.742188 53.394531 C 50.914062 54.097656 49.0625 54.742188 47.136719 55.144531 C 46.359375 55.304688 45.601562 55.546875 44.804688 55.605469 C 44.511719 55.628906 44.300781 55.816406 44.261719 56.109375 C 44.214844 56.453125 44.511719 56.546875 44.753906 56.640625 C 44.921875 56.707031 45.117188 56.703125 45.261719 56.726562 Z M 66.425781 80.105469 C 65.769531 80.546875 65.113281 80.980469 64.402344 81.328125 C 65.128906 82.507812 65.960938 83.605469 66.910156 84.609375 C 67.429688 85.15625 68.023438 85.605469 68.734375 85.859375 C 69.214844 86.03125 69.746094 86.125 70.175781 85.761719 C 70.617188 85.386719 70.542969 84.859375 70.429688 84.355469 C 70.40625 84.25 70.382812 84.148438 70.347656 84.046875 C 69.652344 82.269531 68.835938 80.550781 67.875 78.898438 C 67.339844 79.238281 66.953125 79.75 66.425781 80.105469 Z M 65.171875 77.292969 C 64.347656 77.878906 63.453125 78.332031 62.539062 78.757812 C 62.785156 79.15625 63.0625 79.53125 63.382812 79.875 C 63.738281 79.503906 64.25 79.394531 64.671875 79.136719 C 65.300781 78.75 65.945312 78.386719 66.449219 77.832031 C 66.628906 77.636719 66.824219 77.457031 67.105469 77.421875 C 66.949219 77.03125 66.746094 76.667969 66.511719 76.324219 C 66.019531 76.582031 65.617188 76.96875 65.171875 77.292969 Z M 65.257812 79.199219 C 64.683594 79.511719 64.136719 79.875 63.492188 80.035156 C 63.71875 80.457031 63.996094 80.84375 64.3125 81.203125 C 64.386719 80.945312 64.613281 80.847656 64.816406 80.726562 C 65.691406 80.183594 66.574219 79.652344 67.300781 78.90625 C 67.4375 78.765625 67.621094 78.726562 67.804688 78.699219 C 67.644531 78.324219 67.46875 77.953125 67.207031 77.632812 C 66.550781 78.144531 66.007812 78.792969 65.257812 79.199219 Z M 64.296875 19.46875 C 63.574219 19.734375 63.121094 20.363281 62.546875 20.824219 C 60.894531 22.160156 59.113281 23.304688 57.332031 24.457031 C 54.527344 26.269531 51.664062 27.988281 48.785156 29.683594 C 46.75 30.882812 44.671875 32.003906 42.550781 33.042969 C 40.355469 34.113281 38.09375 35.03125 35.816406 35.902344 C 33.441406 36.8125 31.027344 37.628906 28.625 38.46875 C 27.976562 38.695312 27.3125 38.898438 26.605469 38.832031 C 26.449219 38.816406 26.285156 38.824219 26.132812 38.777344 C 25.960938 38.726562 25.753906 38.667969 25.734375 38.441406 C 25.71875 38.226562 25.867188 38.09375 26.050781 38.027344 C 26.597656 37.828125 27.136719 37.597656 27.699219 37.453125 C 29.300781 37.046875 30.820312 36.414062 32.367188 35.871094 C 34.394531 35.164062 36.394531 34.375 38.375 33.558594 C 40.632812 32.625 42.835938 31.582031 44.984375 30.410156 C 47.199219 29.207031 49.371094 27.933594 51.527344 26.632812 C 53.046875 25.714844 54.546875 24.761719 56.050781 23.816406 C 58.070312 22.546875 60.082031 21.265625 61.972656 19.808594 C 62.515625 19.390625 63.113281 19.019531 63.519531 18.445312 C 63.640625 18.277344 63.800781 18.214844 63.992188 18.195312 C 64.160156 18.605469 64.285156 19.023438 64.296875 19.46875 Z M 24.78125 20.699219 C 21.605469 21.976562 18.496094 23.40625 15.289062 24.613281 C 14.082031 25.070312 12.890625 25.578125 11.75 26.195312 C 12.542969 26.246094 13.257812 25.921875 13.96875 25.675781 C 16.21875 24.90625 18.4375 24.054688 20.589844 23.035156 C 22.503906 22.128906 24.4375 21.269531 26.355469 20.378906 C 26.601562 20.265625 26.941406 20.222656 26.980469 19.847656 C 26.246094 20.128906 25.507812 20.402344 24.78125 20.699219 Z M 66.355469 75.96875 C 65.175781 76.800781 64.066406 77.734375 62.710938 78.289062 C 62.5625 78.351562 62.460938 78.476562 62.40625 78.632812 C 62.414062 78.710938 62.460938 78.75 62.539062 78.757812 C 63.453125 78.332031 64.347656 77.878906 65.171875 77.292969 C 65.617188 76.96875 66.019531 76.582031 66.511719 76.324219 C 66.503906 76.183594 66.453125 76.066406 66.355469 75.96875 Z M 26.355469 20.378906 C 24.4375 21.269531 22.503906 22.128906 20.589844 23.035156 C 18.4375 24.054688 16.21875 24.90625 13.96875 25.675781 C 13.257812 25.921875 12.542969 26.246094 11.75 26.195312 C 11.601562 26.242188 11.445312 26.28125 11.300781 26.335938 C 9.507812 27.003906 7.769531 27.808594 6.003906 28.546875 C 4.449219 29.195312 2.917969 29.941406 1.132812 29.925781 C 1.289062 30.835938 1.867188 31.257812 2.617188 31.472656 C 3.316406 31.667969 4.035156 31.667969 4.757812 31.574219 C 6.617188 31.339844 8.375 30.722656 10.144531 30.15625 C 13.3125 29.144531 16.320312 27.726562 19.390625 26.457031 C 25.339844 23.996094 31.035156 21.003906 36.726562 18.015625 C 41.316406 15.605469 45.988281 13.371094 50.652344 11.117188 C 52.957031 10.003906 55.195312 8.792969 57.378906 7.472656 C 57.832031 7.199219 58.269531 6.886719 58.6875 6.558594 C 59.425781 5.980469 60.066406 5.300781 60.519531 4.476562 C 60.988281 3.621094 60.738281 2.730469 59.96875 2.351562 C 59.820312 2.28125 59.703125 2.230469 59.554688 2.398438 C 58.917969 3.117188 58.160156 3.699219 57.378906 4.253906 C 53.882812 6.742188 50.183594 8.871094 46.234375 10.570312 C 45.210938 11.011719 44.191406 11.464844 43.179688 11.941406 C 37.847656 14.453125 32.722656 17.390625 27.292969 19.710938 C 27.226562 19.742188 27.160156 19.777344 27.09375 19.808594 C 27.042969 19.789062 27.007812 19.800781 26.980469 19.847656 C 26.941406 20.222656 26.601562 20.265625 26.355469 20.378906 Z M 67.207031 77.632812 C 66.550781 78.144531 66.007812 78.792969 65.257812 79.199219 C 64.683594 79.511719 64.136719 79.875 63.492188 80.035156 C 63.410156 80.011719 63.378906 79.957031 63.382812 79.875 C 63.738281 79.503906 64.25 79.394531 64.671875 79.136719 C 65.300781 78.75 65.945312 78.386719 66.449219 77.832031 C 66.628906 77.636719 66.824219 77.457031 67.105469 77.421875 C 67.1875 77.46875 67.21875 77.542969 67.207031 77.632812 Z M 64.3125 81.203125 C 64.386719 80.945312 64.613281 80.847656 64.816406 80.726562 C 65.691406 80.183594 66.574219 79.652344 67.300781 78.90625 C 67.4375 78.765625 67.621094 78.726562 67.804688 78.699219 C 67.828125 78.765625 67.851562 78.832031 67.875 78.898438 C 67.339844 79.238281 66.953125 79.75 66.425781 80.105469 C 65.769531 80.546875 65.113281 80.980469 64.402344 81.328125 C 64.375 81.285156 64.34375 81.242188 64.3125 81.203125 Z M 27.09375 19.808594 C 27.160156 19.777344 27.226562 19.742188 27.292969 19.710938 C 27.203125 19.699219 27.136719 19.730469 27.09375 19.808594 Z M 45.859375 56.671875 C 48.328125 56.183594 50.757812 55.558594 53.113281 54.636719 C 56.433594 53.335938 59.613281 51.753906 62.617188 49.832031 C 64.339844 48.730469 65.925781 47.445312 67.488281 46.132812 C 67.6875 45.960938 67.875 45.765625 68.042969 45.558594 C 68.226562 45.332031 68.226562 45.054688 68.097656 44.808594 C 67.941406 44.519531 67.648438 44.546875 67.386719 44.605469 C 67.128906 44.660156 66.90625 44.8125 66.710938 45.003906 C 66.335938 45.378906 65.921875 45.710938 65.523438 46.058594 C 63.265625 48.023438 60.726562 49.554688 58.109375 50.964844 C 56.375 51.898438 54.574219 52.6875 52.742188 53.394531 C 50.914062 54.097656 49.0625 54.742188 47.136719 55.144531 C 46.359375 55.304688 45.601562 55.546875 44.804688 55.605469 C 44.511719 55.628906 44.300781 55.816406 44.261719 56.109375 C 44.214844 56.453125 44.511719 56.546875 44.753906 56.640625 C 44.921875 56.707031 45.117188 56.703125 45.261719 56.726562 C 45.488281 56.707031 45.675781 56.707031 45.859375 56.671875 Z M 45.859375 56.671875 " fill-opacity="1" fill-rule="nonzero"/><path fill="#ede6e2" d="M 70.445312 48.230469 C 70.277344 52.304688 69.839844 56.152344 68.984375 59.953125 C 68.480469 62.171875 67.558594 64.230469 66.636719 66.292969 C 66.160156 67.359375 65.679688 68.421875 65.40625 69.570312 C 65.160156 70.617188 65.234375 71.621094 65.695312 72.601562 C 66.105469 73.46875 66.550781 74.3125 67.027344 75.140625 C 68.539062 77.769531 69.917969 80.460938 71.097656 83.253906 C 71.273438 83.675781 71.417969 84.101562 71.480469 84.550781 C 71.6875 86.109375 70.675781 87.136719 69.109375 86.945312 C 68.027344 86.8125 67.179688 86.222656 66.421875 85.496094 C 65.667969 84.78125 65.035156 83.957031 64.421875 83.117188 C 63.136719 81.359375 61.9375 79.535156 60.53125 77.863281 C 60.152344 77.417969 59.765625 76.976562 59.347656 76.570312 C 58.199219 75.457031 56.847656 74.722656 55.296875 74.289062 C 51.382812 73.191406 47.441406 72.222656 43.46875 71.363281 C 39.867188 70.582031 36.625 68.929688 33.5 67.035156 C 28.195312 63.820312 23.640625 59.746094 19.667969 54.988281 C 14.738281 49.082031 10.128906 42.945312 6.15625 36.34375 C 5.527344 35.296875 4.878906 34.257812 4.289062 33.1875 C 4.042969 32.742188 3.753906 32.535156 3.25 32.503906 C 2.09375 32.4375 1.179688 31.90625 0.484375 30.976562 C 0.246094 30.664062 0.148438 30.347656 0.160156 29.949219 C 0.257812 26.875 1.9375 24.773438 4.390625 23.226562 C 6.597656 21.839844 8.980469 20.78125 11.46875 19.976562 C 13.566406 19.300781 15.714844 18.792969 17.804688 18.089844 C 20.222656 17.277344 22.597656 16.34375 24.859375 15.167969 C 32.425781 11.230469 40.121094 7.570312 47.9375 4.164062 C 50.371094 3.105469 52.769531 1.964844 55.195312 0.886719 C 57.207031 -0.0078125 59.304688 0.519531 60.921875 1.878906 C 61.816406 2.628906 61.996094 4.042969 61.246094 5.070312 C 60.738281 5.769531 60.820312 6.289062 61.125 7.003906 C 63.851562 13.4375 65.785156 20.109375 67.078125 26.972656 C 67.625 29.871094 68.417969 32.71875 69 35.605469 C 69.855469 39.855469 70.652344 44.675781 70.445312 48.230469 Z M 64.3125 81.203125 C 64.34375 81.242188 64.375 81.285156 64.402344 81.328125 C 65.128906 82.507812 65.960938 83.605469 66.910156 84.609375 C 67.429688 85.15625 68.023438 85.605469 68.734375 85.859375 C 69.214844 86.03125 69.746094 86.125 70.175781 85.761719 C 70.617188 85.386719 70.542969 84.859375 70.429688 84.355469 C 70.40625 84.25 70.382812 84.148438 70.347656 84.046875 C 69.652344 82.269531 68.835938 80.550781 67.875 78.898438 C 67.851562 78.832031 67.828125 78.765625 67.804688 78.699219 C 67.644531 78.324219 67.46875 77.953125 67.207031 77.632812 C 67.21875 77.542969 67.1875 77.46875 67.105469 77.421875 C 66.949219 77.03125 66.746094 76.667969 66.511719 76.324219 C 66.503906 76.183594 66.453125 76.066406 66.355469 75.96875 C 65.785156 74.980469 65.238281 73.976562 64.765625 72.933594 C 64.25 71.800781 64.152344 70.636719 64.429688 69.429688 C 64.671875 68.359375 65.09375 67.355469 65.53125 66.359375 C 66.371094 64.4375 67.289062 62.542969 67.832031 60.503906 C 68.328125 58.621094 68.648438 56.710938 68.894531 54.78125 C 69.359375 51.136719 69.707031 47.492188 69.28125 43.8125 C 68.847656 40.035156 68.253906 36.28125 67.304688 32.597656 C 66.765625 30.511719 66.363281 28.398438 65.945312 26.285156 C 65.488281 23.992188 64.960938 21.714844 64.296875 19.46875 C 64.285156 19.023438 64.160156 18.605469 63.992188 18.195312 C 63.015625 14.28125 61.472656 10.570312 59.964844 6.75 C 59.292969 7.320312 58.710938 7.78125 58.078125 8.167969 C 56.308594 9.246094 54.523438 10.308594 52.65625 11.210938 C 47.9375 13.480469 43.222656 15.753906 38.558594 18.132812 C 33.660156 20.636719 28.851562 23.304688 23.820312 25.546875 C 19.789062 27.339844 15.753906 29.121094 11.621094 30.660156 C 9.753906 31.359375 7.839844 31.914062 5.898438 32.382812 C 5.632812 32.445312 5.3125 32.359375 5.121094 32.578125 C 5.101562 32.804688 5.226562 32.921875 5.304688 33.058594 C 9.761719 40.675781 14.894531 47.8125 20.582031 54.558594 C 24.664062 59.402344 29.367188 63.515625 34.851562 66.699219 C 37.617188 68.308594 40.484375 69.714844 43.636719 70.398438 C 47.585938 71.25 51.503906 72.214844 55.398438 73.300781 C 57.355469 73.84375 59.015625 74.796875 60.414062 76.253906 C 61.128906 77 61.757812 77.824219 62.40625 78.632812 C 62.414062 78.710938 62.460938 78.75 62.539062 78.757812 C 62.785156 79.15625 63.0625 79.53125 63.382812 79.875 C 63.378906 79.957031 63.410156 80.011719 63.492188 80.035156 C 63.71875 80.457031 63.996094 80.84375 64.3125 81.203125 Z M 27.292969 19.710938 C 27.203125 19.699219 27.136719 19.730469 27.09375 19.808594 C 27.042969 19.789062 27.007812 19.800781 26.980469 19.847656 C 26.246094 20.128906 25.507812 20.402344 24.78125 20.699219 C 21.605469 21.976562 18.496094 23.40625 15.289062 24.613281 C 14.082031 25.070312 12.890625 25.578125 11.75 26.195312 C 11.601562 26.242188 11.445312 26.28125 11.300781 26.335938 C 9.507812 27.003906 7.769531 27.808594 6.003906 28.546875 C 4.449219 29.195312 2.917969 29.941406 1.132812 29.925781 C 1.289062 30.835938 1.867188 31.257812 2.617188 31.472656 C 3.316406 31.667969 4.035156 31.667969 4.757812 31.574219 C 6.617188 31.339844 8.375 30.722656 10.144531 30.15625 C 13.3125 29.144531 16.320312 27.726562 19.390625 26.457031 C 25.339844 23.996094 31.035156 21.003906 36.726562 18.015625 C 41.316406 15.605469 45.988281 13.371094 50.652344 11.117188 C 52.957031 10.003906 55.195312 8.792969 57.378906 7.472656 C 57.832031 7.199219 58.269531 6.886719 58.6875 6.558594 C 59.425781 5.980469 60.066406 5.300781 60.519531 4.476562 C 60.988281 3.621094 60.738281 2.730469 59.96875 2.351562 C 59.820312 2.28125 59.703125 2.230469 59.554688 2.398438 C 58.917969 3.117188 58.160156 3.699219 57.378906 4.253906 C 53.882812 6.742188 50.183594 8.871094 46.234375 10.570312 C 45.210938 11.011719 44.191406 11.464844 43.179688 11.941406 C 37.847656 14.453125 32.722656 17.390625 27.292969 19.710938 Z M 2.011719 28.996094 C 2.976562 28.914062 3.855469 28.601562 4.695312 28.191406 C 6.988281 27.078125 9.34375 26.097656 11.6875 25.089844 C 15.765625 23.339844 19.890625 21.703125 23.980469 19.988281 C 27.730469 18.414062 31.492188 16.878906 35.085938 14.960938 C 38.394531 13.195312 41.695312 11.417969 45.160156 9.976562 C 49.480469 8.183594 53.476562 5.824219 57.320312 3.191406 C 57.691406 2.9375 58.003906 2.601562 58.359375 2.324219 C 58.816406 1.972656 58.550781 1.613281 58.183594 1.5 C 57.632812 1.332031 57.074219 1.371094 56.53125 1.542969 C 56.050781 1.699219 55.582031 1.886719 55.113281 2.070312 C 52.269531 3.199219 49.539062 4.574219 46.738281 5.796875 C 39.960938 8.75 33.289062 11.917969 26.738281 15.34375 C 23.386719 17.097656 19.910156 18.550781 16.277344 19.621094 C 14.773438 20.066406 13.257812 20.472656 11.765625 20.945312 C 9.039062 21.8125 6.476562 23.023438 4.101562 24.628906 C 2.917969 25.429688 2.121094 26.535156 1.550781 27.824219 C 1.480469 27.992188 1.425781 28.179688 1.417969 28.359375 C 1.394531 28.796875 1.601562 28.992188 2.011719 28.996094 Z M 2.011719 28.996094 " fill-opacity="1" fill-rule="nonzero"/></g><path fill="#bdb0ab" d="M 2.011719 28.996094 C 1.601562 28.992188 1.394531 28.796875 1.417969 28.359375 C 1.425781 28.179688 1.480469 27.992188 1.550781 27.824219 C 2.121094 26.535156 2.917969 25.429688 4.101562 24.628906 C 6.476562 23.023438 9.039062 21.8125 11.765625 20.945312 C 13.257812 20.472656 14.773438 20.066406 16.277344 19.621094 C 19.910156 18.550781 23.386719 17.097656 26.738281 15.34375 C 33.289062 11.917969 39.960938 8.75 46.738281 5.796875 C 49.539062 4.574219 52.269531 3.199219 55.113281 2.070312 C 55.582031 1.886719 56.050781 1.699219 56.53125 1.542969 C 57.074219 1.371094 57.632812 1.332031 58.183594 1.5 C 58.550781 1.613281 58.816406 1.972656 58.359375 2.324219 C 58.003906 2.601562 57.691406 2.9375 57.320312 3.191406 C 53.476562 5.824219 49.480469 8.183594 45.160156 9.976562 C 41.695312 11.417969 38.394531 13.195312 35.085938 14.960938 C 31.492188 16.878906 27.730469 18.414062 23.980469 19.988281 C 19.890625 21.703125 15.765625 23.339844 11.6875 25.089844 C 9.34375 26.097656 6.988281 27.078125 4.695312 28.191406 C 3.855469 28.601562 2.976562 28.914062 2.011719 28.996094 Z M 2.011719 28.996094 " fill-opacity="1" fill-rule="nonzero"/><path fill="#ffffff" d="M 62.40625 78.632812 C 61.757812 77.824219 61.128906 77 60.414062 76.253906 C 59.015625 74.796875 57.355469 73.84375 55.398438 73.300781 C 51.503906 72.214844 47.585938 71.25 43.636719 70.398438 C 40.484375 69.714844 37.617188 68.308594 34.851562 66.699219 C 29.367188 63.515625 24.664062 59.402344 20.582031 54.558594 C 14.894531 47.8125 9.761719 40.675781 5.304688 33.058594 C 5.226562 32.921875 5.101562 32.804688 5.121094 32.578125 C 5.3125 32.359375 5.632812 32.445312 5.898438 32.382812 C 7.839844 31.914062 9.753906 31.359375 11.621094 30.660156 C 15.753906 29.121094 19.789062 27.339844 23.820312 25.546875 C 28.851562 23.304688 33.660156 20.636719 38.558594 18.132812 C 43.222656 15.753906 47.9375 13.480469 52.65625 11.210938 C 54.523438 10.308594 56.308594 9.246094 58.078125 8.167969 C 58.710938 7.78125 59.292969 7.320312 59.964844 6.75 C 61.472656 10.570312 63.015625 14.28125 63.992188 18.195312 C 63.800781 18.214844 63.640625 18.277344 63.519531 18.445312 C 63.113281 19.019531 62.515625 19.390625 61.972656 19.808594 C 60.082031 21.265625 58.070312 22.546875 56.050781 23.816406 C 54.546875 24.761719 53.046875 25.714844 51.527344 26.632812 C 49.371094 27.933594 47.199219 29.207031 44.984375 30.410156 C 42.835938 31.582031 40.632812 32.625 38.375 33.558594 C 36.394531 34.375 34.394531 35.164062 32.367188 35.871094 C 30.820312 36.414062 29.300781 37.046875 27.699219 37.453125 C 27.136719 37.597656 26.597656 37.828125 26.050781 38.027344 C 25.867188 38.09375 25.71875 38.226562 25.734375 38.441406 C 25.753906 38.667969 25.960938 38.726562 26.132812 38.777344 C 26.285156 38.824219 26.449219 38.816406 26.605469 38.832031 C 27.3125 38.898438 27.976562 38.695312 28.625 38.46875 C 31.027344 37.628906 33.441406 36.8125 35.816406 35.902344 C 38.09375 35.03125 40.355469 34.113281 42.550781 33.042969 C 44.671875 32.003906 46.75 30.882812 48.785156 29.683594 C 51.664062 27.988281 54.527344 26.269531 57.332031 24.457031 C 59.113281 23.304688 60.894531 22.160156 62.546875 20.824219 C 63.121094 20.363281 63.574219 19.734375 64.296875 19.46875 C 64.960938 21.714844 65.488281 23.992188 65.945312 26.285156 C 66.363281 28.398438 66.765625 30.511719 67.304688 32.597656 C 68.253906 36.28125 68.847656 40.035156 69.28125 43.8125 C 69.707031 47.492188 69.359375 51.136719 68.894531 54.78125 C 68.648438 56.710938 68.328125 58.621094 67.832031 60.503906 C 67.289062 62.542969 66.371094 64.4375 65.53125 66.359375 C 65.09375 67.355469 64.671875 68.359375 64.429688 69.429688 C 64.152344 70.636719 64.25 71.800781 64.765625 72.933594 C 65.238281 73.976562 65.785156 74.980469 66.355469 75.96875 C 65.175781 76.800781 64.066406 77.734375 62.710938 78.289062 C 62.5625 78.351562 62.460938 78.476562 62.40625 78.632812 Z M 45.261719 56.726562 C 45.488281 56.707031 45.675781 56.707031 45.859375 56.671875 C 48.328125 56.183594 50.757812 55.558594 53.113281 54.636719 C 56.433594 53.335938 59.613281 51.753906 62.617188 49.832031 C 64.339844 48.730469 65.925781 47.445312 67.488281 46.132812 C 67.6875 45.960938 67.875 45.765625 68.042969 45.558594 C 68.226562 45.332031 68.226562 45.054688 68.097656 44.808594 C 67.941406 44.519531 67.648438 44.546875 67.386719 44.605469 C 67.128906 44.660156 66.90625 44.8125 66.710938 45.003906 C 66.335938 45.378906 65.921875 45.710938 65.523438 46.058594 C 63.265625 48.023438 60.726562 49.554688 58.109375 50.964844 C 56.375 51.898438 54.574219 52.6875 52.742188 53.394531 C 50.914062 54.097656 49.0625 54.742188 47.136719 55.144531 C 46.359375 55.304688 45.601562 55.546875 44.804688 55.605469 C 44.511719 55.628906 44.300781 55.816406 44.261719 56.109375 C 44.214844 56.453125 44.511719 56.546875 44.753906 56.640625 C 44.921875 56.707031 45.117188 56.703125 45.261719 56.726562 Z M 66.425781 80.105469 C 65.769531 80.546875 65.113281 80.980469 64.402344 81.328125 C 65.128906 82.507812 65.960938 83.605469 66.910156 84.609375 C 67.429688 85.15625 68.023438 85.605469 68.734375 85.859375 C 69.214844 86.03125 69.746094 86.125 70.175781 85.761719 C 70.617188 85.386719 70.542969 84.859375 70.429688 84.355469 C 70.40625 84.25 70.382812 84.148438 70.347656 84.046875 C 69.652344 82.269531 68.835938 80.550781 67.875 78.898438 C 67.339844 79.238281 66.953125 79.75 66.425781 80.105469 Z M 65.171875 77.292969 C 64.347656 77.878906 63.453125 78.332031 62.539062 78.757812 C 62.785156 79.15625 63.0625 79.53125 63.382812 79.875 C 63.738281 79.503906 64.25 79.394531 64.671875 79.136719 C 65.300781 78.75 65.945312 78.386719 66.449219 77.832031 C 66.628906 77.636719 66.824219 77.457031 67.105469 77.421875 C 66.949219 77.03125 66.746094 76.667969 66.511719 76.324219 C 66.019531 76.582031 65.617188 76.96875 65.171875 77.292969 Z M 65.257812 79.199219 C 64.683594 79.511719 64.136719 79.875 63.492188 80.035156 C 63.71875 80.457031 63.996094 80.84375 64.3125 81.203125 C 64.386719 80.945312 64.613281 80.847656 64.816406 80.726562 C 65.691406 80.183594 66.574219 79.652344 67.300781 78.90625 C 67.4375 78.765625 67.621094 78.726562 67.804688 78.699219 C 67.644531 78.324219 67.46875 77.953125 67.207031 77.632812 C 66.550781 78.144531 66.007812 78.792969 65.257812 79.199219 Z M 65.257812 79.199219 " fill-opacity="1" fill-rule="nonzero"/><path fill="#ede6e2" d="M 64.296875 19.46875 C 63.574219 19.734375 63.121094 20.363281 62.546875 20.824219 C 60.894531 22.160156 59.113281 23.304688 57.332031 24.457031 C 54.527344 26.269531 51.664062 27.988281 48.785156 29.683594 C 46.75 30.882812 44.671875 32.003906 42.550781 33.042969 C 40.355469 34.113281 38.09375 35.03125 35.816406 35.902344 C 33.441406 36.8125 31.027344 37.628906 28.625 38.46875 C 27.976562 38.695312 27.3125 38.898438 26.605469 38.832031 C 26.449219 38.816406 26.285156 38.824219 26.132812 38.777344 C 25.960938 38.726562 25.753906 38.667969 25.734375 38.441406 C 25.71875 38.226562 25.867188 38.09375 26.050781 38.027344 C 26.597656 37.828125 27.136719 37.597656 27.699219 37.453125 C 29.300781 37.046875 30.820312 36.414062 32.367188 35.871094 C 34.394531 35.164062 36.394531 34.375 38.375 33.558594 C 40.632812 32.625 42.835938 31.582031 44.984375 30.410156 C 47.199219 29.207031 49.371094 27.933594 51.527344 26.632812 C 53.046875 25.714844 54.546875 24.761719 56.050781 23.816406 C 58.070312 22.546875 60.082031 21.265625 61.972656 19.808594 C 62.515625 19.390625 63.113281 19.019531 63.519531 18.445312 C 63.640625 18.277344 63.800781 18.214844 63.992188 18.195312 C 64.160156 18.605469 64.285156 19.023438 64.296875 19.46875 Z M 24.78125 20.699219 C 21.605469 21.976562 18.496094 23.40625 15.289062 24.613281 C 14.082031 25.070312 12.890625 25.578125 11.75 26.195312 C 12.542969 26.246094 13.257812 25.921875 13.96875 25.675781 C 16.21875 24.90625 18.4375 24.054688 20.589844 23.035156 C 22.503906 22.128906 24.4375 21.269531 26.355469 20.378906 C 26.601562 20.265625 26.941406 20.222656 26.980469 19.847656 C 26.246094 20.128906 25.507812 20.402344 24.78125 20.699219 Z M 66.355469 75.96875 C 65.175781 76.800781 64.066406 77.734375 62.710938 78.289062 C 62.5625 78.351562 62.460938 78.476562 62.40625 78.632812 C 62.414062 78.710938 62.460938 78.75 62.539062 78.757812 C 63.453125 78.332031 64.347656 77.878906 65.171875 77.292969 C 65.617188 76.96875 66.019531 76.582031 66.511719 76.324219 C 66.503906 76.183594 66.453125 76.066406 66.355469 75.96875 Z M 26.355469 20.378906 C 24.4375 21.269531 22.503906 22.128906 20.589844 23.035156 C 18.4375 24.054688 16.21875 24.90625 13.96875 25.675781 C 13.257812 25.921875 12.542969 26.246094 11.75 26.195312 C 11.601562 26.242188 11.445312 26.28125 11.300781 26.335938 C 9.507812 27.003906 7.769531 27.808594 6.003906 28.546875 C 4.449219 29.195312 2.917969 29.941406 1.132812 29.925781 C 1.289062 30.835938 1.867188 31.257812 2.617188 31.472656 C 3.316406 31.667969 4.035156 31.667969 4.757812 31.574219 C 6.617188 31.339844 8.375 30.722656 10.144531 30.15625 C 13.3125 29.144531 16.320312 27.726562 19.390625 26.457031 C 25.339844 23.996094 31.035156 21.003906 36.726562 18.015625 C 41.316406 15.605469 45.988281 13.371094 50.652344 11.117188 C 52.957031 10.003906 55.195312 8.792969 57.378906 7.472656 C 57.832031 7.199219 58.269531 6.886719 58.6875 6.558594 C 59.425781 5.980469 60.066406 5.300781 60.519531 4.476562 C 60.988281 3.621094 60.738281 2.730469 59.96875 2.351562 C 59.820312 2.28125 59.703125 2.230469 59.554688 2.398438 C 58.917969 3.117188 58.160156 3.699219 57.378906 4.253906 C 53.882812 6.742188 50.183594 8.871094 46.234375 10.570312 C 45.210938 11.011719 44.191406 11.464844 43.179688 11.941406 C 37.847656 14.453125 32.722656 17.390625 27.292969 19.710938 C 27.226562 19.742188 27.160156 19.777344 27.09375 19.808594 C 27.042969 19.789062 27.007812 19.800781 26.980469 19.847656 C 26.941406 20.222656 26.601562 20.265625 26.355469 20.378906 Z M 67.207031 77.632812 C 66.550781 78.144531 66.007812 78.792969 65.257812 79.199219 C 64.683594 79.511719 64.136719 79.875 63.492188 80.035156 C 63.410156 80.011719 63.378906 79.957031 63.382812 79.875 C 63.738281 79.503906 64.25 79.394531 64.671875 79.136719 C 65.300781 78.75 65.945312 78.386719 66.449219 77.832031 C 66.628906 77.636719 66.824219 77.457031 67.105469 77.421875 C 67.1875 77.46875 67.21875 77.542969 67.207031 77.632812 Z M 64.3125 81.203125 C 64.386719 80.945312 64.613281 80.847656 64.816406 80.726562 C 65.691406 80.183594 66.574219 79.652344 67.300781 78.90625 C 67.4375 78.765625 67.621094 78.726562 67.804688 78.699219 C 67.828125 78.765625 67.851562 78.832031 67.875 78.898438 C 67.339844 79.238281 66.953125 79.75 66.425781 80.105469 C 65.769531 80.546875 65.113281 80.980469 64.402344 81.328125 C 64.375 81.285156 64.34375 81.242188 64.3125 81.203125 Z M 27.09375 19.808594 C 27.160156 19.777344 27.226562 19.742188 27.292969 19.710938 C 27.203125 19.699219 27.136719 19.730469 27.09375 19.808594 Z M 45.859375 56.671875 C 48.328125 56.183594 50.757812 55.558594 53.113281 54.636719 C 56.433594 53.335938 59.613281 51.753906 62.617188 49.832031 C 64.339844 48.730469 65.925781 47.445312 67.488281 46.132812 C 67.6875 45.960938 67.875 45.765625 68.042969 45.558594 C 68.226562 45.332031 68.226562 45.054688 68.097656 44.808594 C 67.941406 44.519531 67.648438 44.546875 67.386719 44.605469 C 67.128906 44.660156 66.90625 44.8125 66.710938 45.003906 C 66.335938 45.378906 65.921875 45.710938 65.523438 46.058594 C 63.265625 48.023438 60.726562 49.554688 58.109375 50.964844 C 56.375 51.898438 54.574219 52.6875 52.742188 53.394531 C 50.914062 54.097656 49.0625 54.742188 47.136719 55.144531 C 46.359375 55.304688 45.601562 55.546875 44.804688 55.605469 C 44.511719 55.628906 44.300781 55.816406 44.261719 56.109375 C 44.214844 56.453125 44.511719 56.546875 44.753906 56.640625 C 44.921875 56.707031 45.117188 56.703125 45.261719 56.726562 C 45.488281 56.707031 45.675781 56.707031 45.859375 56.671875 Z M 45.859375 56.671875 " fill-opacity="1" fill-rule="nonzero"/></svg>