<?xml version="1.0" standalone="no"?>
<!DOCTYPE svg PUBLIC "-//W3C//DTD SVG 20010904//EN" "http://www.w3.org/TR/2001/REC-SVG-20010904/DTD/svg10.dtd">
<svg version="1.0" xmlns="http://www.w3.org/2000/svg"
  width="256.000000pt" height="256.000000pt" viewBox="0 0 256.000000 256.000000"
  preserveAspectRatio="xMidYMid meet">

  <g transform="translate(0.000000,256.000000) scale(0.100000,-0.100000)"
    stroke="none">
    <path
      d="M1163 2545 c-211 -46 -391 -229 -433 -440 -8 -40 -10 -103 -6 -190
l6 -130 -126 -75 c-94 -56 -134 -85 -153 -114 l-26 -40 0 -276 0 -276 26 -40
c19 -29 59 -58 153 -114 l126 -75 -6 -130 c-8 -155 3 -218 53 -325 48 -100
159 -213 256 -259 226 -107 463 -67 638 108 57 57 85 95 112 151 50 107 61
170 53 325 l-6 130 126 75 c94 56 134 85 153 114 l26 40 0 276 0 276 -26 40
c-19 29 -59 58 -153 114 l-126 75 6 130 c8 155 -3 218 -53 325 -48 100 -159
213 -256 259 -120 57 -241 73 -364 46z m260 -85 c77 -24 172 -85 223 -143 50
-57 101 -169 113 -247 7 -44 7 -102 0 -188 -9 -93 -9 -126 0 -135 7 -7 71 -48
144 -92 104 -63 136 -87 149 -115 16 -30 18 -66 18 -260 0 -194 -2 -230 -18
-260 -13 -28 -45 -52 -149 -115 -73 -44 -137 -85 -144 -92 -9 -9 -9 -42 0
-135 13 -152 3 -225 -44 -327 -59 -124 -176 -221 -310 -256 -225 -58 -463 51
-560 256 -47 102 -57 175 -44 327 9 93 9 126 0 135 -7 7 -71 48 -144 92 -104
63 -136 87 -149 115 -16 30 -18 66 -18 260 0 194 2 230 18 260 13 28 45 52
149 115 73 44 137 85 144 92 9 9 9 42 0 135 -13 152 -3 226 43 323 41 85 86
139 161 190 120 83 280 108 418 65z" />
    <path
      d="M1181 2394 c-84 -22 -135 -54 -139 -86 -5 -40 27 -44 90 -11 47 25
63 28 148 28 89 0 99 -2 158 -34 67 -37 122 -94 147 -153 35 -86 36 -115 8
-410 -34 -364 -34 -532 0 -898 25 -265 26 -289 12 -343 -20 -77 -39 -111 -88
-161 -70 -69 -126 -91 -237 -91 -85 0 -101 3 -148 28 -59 31 -123 90 -146 136
-9 16 -23 56 -31 88 -14 54 -13 78 12 343 34 366 34 534 0 900 -25 264 -26
289 -12 342 8 32 23 74 34 94 36 67 -16 105 -60 43 -30 -43 -59 -141 -59 -203
0 -29 11 -178 25 -330 31 -346 31 -444 0 -790 -14 -153 -25 -301 -25 -330 0
-242 238 -441 476 -397 197 36 344 206 344 396 0 29 -11 177 -25 329 -14 153
-25 331 -25 396 0 65 11 243 25 396 14 152 25 300 25 329 0 183 -143 354 -328
394 -69 14 -114 13 -181 -5z" />
    <path
      d="M1194 1671 c-51 -23 -99 -81 -113 -137 -14 -56 -14 -452 0 -508 22
-89 107 -156 199 -156 92 0 177 67 199 156 14 56 14 452 0 508 -22 89 -107
156 -199 156 -25 0 -63 -9 -86 -19z m136 -67 c23 -10 48 -29 60 -49 19 -30 20
-49 20 -275 0 -227 -1 -245 -20 -276 -14 -21 -36 -39 -65 -50 -42 -16 -48 -16
-90 0 -29 11 -51 29 -65 50 -19 31 -20 49 -20 276 0 275 3 288 75 321 49 23
55 23 105 3z" />
  </g>
</svg>